DBRep_DrawableShape

CASCADE Topology V1, (c) Matra-Datavision
Locations 1
1
              1               0               0               0 
              0               1               0               0 
              0               0               1               0 
Curve2ds 64
1 6.2831853071795862 4.7123889803846897 -1 0 
1 3.1415926535897931 0 0 1 
1 3.1415926535897931 0 0 1 
1 0 6.2831853071795862 1 0 
1 0 0.29999999999999938 1 0 
1 0 4.7123889803846897 0 1 
1 6.2831853071795862 4.7123889803846897 0 1 
1 6.2831853071795862 0 -1 0 
1 -3.1415926535897931 0.29999999999999938 1 0 
1 3.1415926535897931 -3.1415926535897931 0 1 
1 3.1415926535897931 -3.1415926535897931 0 1 
1 0 1.5707963267948968 1 0 
1 0 -4.7123889803846897 0 1 
1 6.2831853071795862 -4.7123889803846897 0 1 
1 3.1415926535897931 0 0 1 
1 3.1415926535897931 0 0 1 
1 6.2831853071795862 4.2000000000000002 -1 0 
1 0 0 0 1 
1 6.2831853071795862 0 0 1 
1 3.1415926535897931 0 0 1 
1 3.1415926535897931 0 0 1 
1 3.1415926535897931 4.2000000000000002 -1 0 
1 0 0 0 1 
1 6.2831853071795862 0 0 1 
1 6.2831853071795862 0 0 1 
1 0 0 0 1 
1 3.1415926535897931 0.99999999999999911 1 0 
1 3.1415926535897931 0 0 1 
1 3.1415926535897931 0 0 1 
1 3.1415926535897931 0 1 0 
1 6.2831853071795862 0 0 1 
1 0 0 0 1 
1 0 0.99999999999999911 1 0 
1 3.1415926535897931 0 0 1 
1 3.1415926535897931 0 0 1 
1 0 0 1 0 
1 6.2831853071795862 0 0 1 
1 0 0 0 1 
1 3.1415926535897931 8.0284271247461891 1 0 
1 3.1415926535897931 0 0 1 
1 3.1415926535897931 0 0 1 
1 6.2831853071795862 3.8284271247461903 -1 0 
1 6.2831853071795862 0 0 1 
1 0 0 0 1 
1 0 8.0284271247461891 1 0 
1 3.1415926535897931 0 0 1 
1 3.1415926535897931 0 0 1 
1 6.2831853071795862 3.8284271247461903 -1 0 
1 9.4247779607693793 4.2000000000000002 -1 0 
1 6.2831853071795862 4.2000000000000002 -1 0 
1 -3.1415926535897931 0.99999999999999911 1 0 
1 0 0.99999999999999911 1 0 
1 0 8.0284271247461891 1 0 
1 -3.1415926535897931 8.0284271247461891 1 0 
1 6.2831853071795862 3.8284271247461903 -1 0 
1 6.2831853071795862 3.8284271247461903 -1 0 
1 0 0 1 0 
1 -3.1415926535897931 0 1 0 
1 3.1415926535897931 0.29999999999999938 1 0 
1 6.2831853071795862 0 -1 0 
1 0 1.5707963267948968 1 0 
1 0 0.29999999999999938 1 0 
1 0 6.2831853071795862 1 0 
1 6.2831853071795862 4.7123889803846897 -1 0 
Curves 83
2 -1.75 0 -4.2000000000000002 -0 0 -1 1 0 0 0 -1 -0 0.14999999999999952
2 -1.8999999999999995 1.8369701987210239e-17 -3.9000000000000008 1.2246467991473532e-16 1 0 -1 1.2246467991473532e-16 0 0 -0 1 0.30000000000000016
2 -1.75 0 -3.9000000000000008 0 -0 1 1 0 0 -0 1 0 0.44999999999999946
2 -1.6000000000000005 0 -3.9000000000000008 0 -1 -0 0 0 -1 1 0 0 0.29999999999999993
2 1.75 0 -3.9000000000000008 -0 -0 1 -1 0 0 -0 -1 -0 0.4499999999999999
2 1.8999999999999999 1.8369701987210294e-17 -3.9000000000000008 -1.2246467991473532e-16 1 0 -1 -1.2246467991473532e-16 0 0 0 1 0.29999999999999993
2 1.75 0 -4.2000000000000002 0 0 -1 -1 0 0 0 1 0 0.14999999999999997
2 1.6000000000000001 0 -3.9000000000000008 -0 -1 -0 0 0 -1 1 -0 0 0.29999999999999993
1 -2.1999999999999997 5.5109105961630828e-17 -4.2000000000000002 -0 -0 1 
2 -1.75 0 0 -0 0 -1 1 0 0 0 -1 -0 0.44999999999999946
1 -1.3000000000000005 0 -4.2000000000000002 -0 -0 1 
1 1.3000000000000003 5.5109105961630889e-17 -4.2000000000000002 -0 -0 1 
2 1.75 0 0 0 0 -1 -1 0 0 0 1 0 0.4499999999999999
1 2.2000000000000002 0 -4.2000000000000002 -0 -0 1 
1 3.0249999999999999 0.49999999999999784 7.4000000000000012 -0 -0 1 
2 1.7249999999999999 0.49999999999999784 8.4000000000000004 0 0 1 -1 0 0 0 -1 0 1.3
1 0.42500000000000004 0.49999999999999795 7.4000000000000012 -0 -0 1 
2 1.7249999999999999 0.49999999999999784 7.4000000000000012 0 0 1 -1 0 0 0 -1 0 1.3
1 -0.42500000000000004 0.49999999999999784 7.4000000000000012 -0 -0 1 
2 -1.7249999999999999 0.49999999999999784 8.4000000000000004 0 0 1 1 0 -0 -0 1 0 1.3
1 -3.0249999999999999 0.49999999999999795 7.4000000000000012 -0 -0 1 
2 -1.7249999999999999 0.49999999999999784 7.4000000000000012 0 0 1 1 0 -0 -0 1 0 1.3
1 1.7249999999999999 6.3284271247461881 1.6000000000000003 -0 -1 -0 
2 1.7249999999999999 -1.7000000000000015 2.6000000000000005 0 -1 0 0 0 1 -1 0 0 1
1 1.7250000000000001 6.3284271247461881 3.6000000000000005 -0 -1 -0 
2 1.7249999999999999 2.4999999999999978 2.6000000000000005 -0 1 -0 0 0 -1 -1 -0 -0 1
1 -1.7249999999999999 6.3284271247461881 1.6000000000000003 -0 -1 -0 
2 -1.7249999999999999 -1.7000000000000015 2.6000000000000005 0 -1 0 0 0 -1 1 0 0 1
1 -1.7249999999999996 6.3284271247461881 3.6000000000000005 -0 -1 -0 
2 -1.7249999999999999 2.4999999999999978 2.6000000000000005 -0 1 -0 0 0 -1 -1 -0 -0 1
2 1.75 0 0 0 0 -1 -1 0 0 0 1 0 0.4499999999999999
1 3.5000000000000004 -3.5000000000000013 0 0 1 0 
1 -3.4999999999999996 -3.5000000000000013 0 1 0 0 
1 -3.4999999999999996 -3.5000000000000013 0 -0 -1 -0 
1 -3.4999999999999996 3.4999999999999978 0 -1 -0 -0 
2 -1.75 0 0 -0 0 -1 1 0 0 0 -1 -0 0.44999999999999946
1 3.5000000000000004 -3.5000000000000013 8.4000000000000004 0 1 0 
1 3.5000000000000004 -2.2261041800682921 8.4000000000000004 -0 -0.3420201433256661 -0.93969262078590943 
1 3.5000000000000004 -3.5000000000000013 8.4000000000000004 -0 -0 -1 
1 3.5000000000000004 3.4999999999999978 8.4000000000000004 -0 -0 -1 
1 -3.4999999999999996 3.4999999999999978 8.4000000000000004 -0 -0 -1 
1 -3.4999999999999996 3.4999999999999978 8.4000000000000004 -1 -0 -0 
1 -3.4999999999999996 -3.5000000000000013 8.4000000000000004 -0 -0 -1 
1 -3.4999999999999996 -2.2261041800682921 8.4000000000000004 -0 0.3420201433256661 0.93969262078590943 
1 -3.4999999999999996 -3.5000000000000013 8.4000000000000004 -0 -1 -0 
1 0.29999999999999993 -3.5000000000000013 4.7000000000000011 -1.0325734976052422e-16 0 -1 
1 3.1499999999999995 -3.5000000000000013 4.7000000000000011 -1 0 0 
1 3.1499999999999995 -3.5000000000000013 4.7000000000000011 1.0325734976052422e-16 -0 1 
1 3.149999999999999 -3.5000000000000013 0.5 1 -0 -0 
1 -3.149999999999999 -3.5000000000000013 0.5 1 0 0 
1 -3.1499999999999995 -3.5000000000000013 4.7000000000000011 1.0325734976052422e-16 0 -1 
1 -3.1499999999999995 -3.5000000000000013 4.7000000000000011 -1 -0 -0 
1 -0.29999999999999993 -3.5000000000000013 4.7000000000000011 -1.0325734976052422e-16 -0 1 
1 -3.4999999999999996 -3.5000000000000013 4.8999999999999684 -1 0 0 
2 1.7249999999999999 0.49999999999999784 8.4000000000000004 0 0 1 -1 0 0 0 -1 0 1.3
2 -1.7249999999999999 0.49999999999999784 8.4000000000000004 0 0 1 1 0 -0 -0 1 0 1.3
1 0 -2.2261041800682921 8.4000000000000004 1 0 0 
1 -3.149999999999999 -1.7000000000000015 0.5 -0 -1 -0 
1 -3.1499999999999995 -1.7000000000000015 4.7000000000000011 1.0325734976052422e-16 0 -1 
1 -3.1499999999999995 -1.7000000000000015 4.7000000000000011 -0 -1 -0 
1 -3.1499999999999995 -1.7000000000000015 4.7000000000000011 -1 -0 -0 
1 -0.29999999999999993 -1.7000000000000015 4.7000000000000011 -0 -1 -0 
1 -0.29999999999999993 -1.7000000000000015 4.7000000000000011 -1.0325734976052422e-16 -0 1 
1 -0.29999999999999949 -1.7000000000000015 0.5 -0 -1 -0 
1 -3.149999999999999 -1.7000000000000015 0.5 1 0 0 
2 -1.7249999999999999 -1.7000000000000015 2.6000000000000005 0 -1 0 0 0 -1 1 0 0 1
1 0.29999999999999993 -1.7000000000000015 4.7000000000000011 -0 -1 -0 
1 3.1499999999999995 -1.7000000000000015 4.7000000000000011 -1 0 0 
1 3.1499999999999995 -1.7000000000000015 4.7000000000000011 -0 -1 -0 
1 3.1499999999999995 -1.7000000000000015 4.7000000000000011 1.0325734976052422e-16 -0 1 
1 3.149999999999999 -1.7000000000000015 0.5 -0 -1 -0 
1 3.149999999999999 -1.7000000000000015 0.5 1 -0 -0 
1 0.29999999999999949 -1.7000000000000015 0.5 -0 -1 -0 
1 0.29999999999999993 -1.7000000000000015 4.7000000000000011 -1.0325734976052422e-16 0 -1 
2 1.7249999999999999 -1.7000000000000015 2.6000000000000005 0 -1 0 0 0 1 -1 0 0 1
2 -1.7249999999999999 2.4999999999999978 2.6000000000000005 -0 1 -0 0 0 -1 -1 -0 -0 1
2 1.7249999999999999 2.4999999999999978 2.6000000000000005 -0 1 -0 0 0 -1 -1 -0 -0 1
2 -1.7249999999999999 0.49999999999999784 7.4000000000000012 0 0 1 1 0 -0 -0 1 0 1.3
2 1.7249999999999999 0.49999999999999784 7.4000000000000012 0 0 1 -1 0 0 0 -1 0 1.3
2 1.75 0 -3.9000000000000008 -0 -0 1 -1 0 0 -0 -1 -0 0.4499999999999999
2 1.75 0 -4.2000000000000002 0 0 -1 -1 0 0 0 1 0 0.14999999999999997
2 -1.75 0 -3.9000000000000008 0 -0 1 1 0 0 -0 1 0 0.44999999999999946
2 -1.75 0 -4.2000000000000002 -0 0 -1 1 0 0 0 -1 -0 0.14999999999999952
Polygon3D 0
PolygonOnTriangulations 0
Surfaces 39
5 -1.75 0 -3.9000000000000008 0 -0 1 1 0 0 -0 1 0 0.14999999999999952 0.29999999999999999
1 -1.75 0 -4.2000000000000002 0 -0 1 1 0 0 -0 1 0 
5 -1.75 0 -3.9000000000000008 0 -0 1 1 0 0 -0 1 0 0.14999999999999952 0.29999999999999999
2 -1.75 0 -4.2000000000000002 -0 -0 1 1 0 0 -0 1 0 0.44999999999999946
5 1.75 0 -3.9000000000000008 0 0 -1 -1 0 0 0 1 0 0.14999999999999997 0.29999999999999999
2 1.75 0 -4.2000000000000002 -0 -0 1 1 0 0 -0 1 0 0.45000000000000012
5 1.75 0 -3.9000000000000008 0 0 -1 -1 0 0 0 1 0 0.14999999999999997 0.29999999999999999
1 1.75 0 -4.2000000000000002 0 0 -1 -1 0 -0 0 1 0 
2 -1.75 0 -4.2000000000000002 -0 -0 1 1 0 0 -0 1 0 0.44999999999999946
1 0 0 0 0 0 -1 -1 0 -0 0 1 0 
2 1.75 0 -4.2000000000000002 -0 -0 1 1 0 0 -0 1 0 0.45000000000000012
2 1.7249999999999999 0.49999999999999784 7.4000000000000012 -0 -0 1 1 0 0 -0 1 0 1.3
2 1.7249999999999999 0.49999999999999784 7.4000000000000012 -0 -0 1 1 0 0 -0 1 0 1.3
1 0 0 8.4000000000000004 0 0 -1 -1 0 -0 0 1 0 
1 1.7249999999999999 0.49999999999999784 7.4000000000000012 -0 0 -1 -1 0 0 0 1 0 
2 -1.7249999999999999 0.49999999999999784 7.4000000000000012 -0 -0 1 1 0 0 -0 1 0 1.3
2 -1.7249999999999999 0.49999999999999784 7.4000000000000012 -0 -0 1 1 0 0 -0 1 0 1.3
1 -1.7249999999999999 0.49999999999999784 7.4000000000000012 0 0 1 1 0 -0 -0 1 0 
2 1.7249999999999999 6.3284271247461881 2.6000000000000005 -0 -1 -0 0 0 -1 1 -0 0 1
2 1.7249999999999999 6.3284271247461881 2.6000000000000005 -0 -1 -0 0 0 -1 1 -0 0 1
1 0 -1.7000000000000015 0 0 -1 0 0 -0 -1 1 0 0 
1 -3.4999999999999996 2.4999999999999978 8.4000000000000004 0 -1 0 0 -0 -1 1 0 0 
2 -1.7249999999999999 6.3284271247461881 2.6000000000000005 -0 -1 -0 0 0 -1 1 -0 0 1
2 -1.7249999999999999 6.3284271247461881 2.6000000000000005 -0 -1 -0 0 0 -1 1 -0 0 1
1 0 -1.7000000000000015 0 0 -1 0 0 -0 -1 1 0 0 
1 -3.4999999999999996 2.4999999999999978 8.4000000000000004 0 -1 0 0 -0 -1 1 0 0 
1 3.5000000000000004 -3.5000000000000013 8.4000000000000004 -1 0 0 0 0 1 0 1 -0 
1 -3.4999999999999996 -3.5000000000000013 8.4000000000000004 0 1 0 0 -0 1 1 0 -0 
1 -3.4999999999999996 -3.5000000000000013 8.4000000000000004 1 0 0 0 0 -1 -0 1 0 
1 -3.4999999999999996 3.4999999999999978 8.4000000000000004 0 -1 0 0 -0 -1 1 0 0 
1 0 -2.2261041800682921 8.4000000000000004 0 0.93969262078590943 -0.3420201433256661 1 -0 0 0 -0.3420201433256661 -0.93969262078590943 
1 0.29999999999999993 -1.7000000000000015 4.7000000000000011 -1 0 1.0325734976052422e-16 1.0325734976052422e-16 0 1 0 1 -0 
1 3.1499999999999995 -1.7000000000000015 4.7000000000000011 0 -0 1 1 0 0 -0 1 0 
1 3.1499999999999995 -1.7000000000000015 4.7000000000000011 1 0 -1.0325734976052422e-16 -1.0325734976052422e-16 0 -1 0 1 0 
1 3.149999999999999 -1.7000000000000015 0.5 0 0 -1 -1 0 -0 0 1 0 
1 -3.149999999999999 -1.7000000000000015 0.5 0 0 -1 -1 0 -0 0 1 0 
1 -3.1499999999999995 -1.7000000000000015 4.7000000000000011 -1 0 -1.0325734976052422e-16 -1.0325734976052422e-16 0 1 0 1 0 
1 -3.1499999999999995 -1.7000000000000015 4.7000000000000011 0 0 1 1 0 -0 -0 1 0 
1 -0.29999999999999993 -1.7000000000000015 4.7000000000000011 1 -0 1.0325734976052422e-16 1.0325734976052422e-16 0 -1 0 1 0 
Triangulations 0

TShapes 226
Ve
1e-07
-1.9 3.67394039744205e-17 -4.2
0 0

0101101
*
Ve
1e-07
-1.6 0 -4.2
0 0

0101101
*
Ed
 1e-07 1 1 0
1  1 0 3.14159265358979 6.28318530717959
2  1 1 0 3.14159265358979 6.28318530717959
4 G1 1 0 2 0
0

0101000
+226 0 -225 0 *
Ve
1e-07
-2.2 5.51091059616308e-17 -3.9
0 0

0101101
*
Ed
 1e-07 1 1 0
1  2 0 4.71238898038469 6.28318530717959
2  2 1 0 4.71238898038469 6.28318530717959
2  3 3 0 4.71238898038469 6.28318530717959
4 CN 1 0 3 0
0

0101000
+226 0 -223 0 *
Ve
1e-07
-1.3 0 -3.9
0 0

0101101
*
Ed
 1e-07 1 1 0
1  3 0 0 3.14159265358979
2  4 1 0 0 3.14159265358979
2  5 4 0 0 3.14159265358979
4 G1 1 0 4 0
0

0101000
+221 0 -223 0 *
Ed
 1e-07 1 1 0
1  4 0 0 1.5707963267949
2  6 1 0 0 1.5707963267949
2  7 3 0 0 1.5707963267949
4 CN 1 0 3 0
0

0101000
+225 0 -221 0 *
Wi

0101100
-224 0 +222 0 -220 0 -219 0 *
Fa
0  1e-07 1 0

0111000
+218 0 *
Ve
1e-07
2.2 0 -3.9
0 0

0101101
*
Ve
1e-07
1.3 5.51091059616309e-17 -3.9
0 0

0101101
*
Ed
 1e-07 1 1 0
1  5 0 3.14159265358979 6.28318530717959
2  8 5 0 3.14159265358979 6.28318530717959
2  9 6 0 3.14159265358979 6.28318530717959
4 G1 5 0 6 0
0

0101000
+216 0 -215 0 *
Ve
1e-07
1.9 3.67394039744206e-17 -4.2
0 0

0101101
*
Ed
 1e-07 1 1 0
1  6 0 3.14159265358979 4.71238898038469
2  10 5 0 3.14159265358979 4.71238898038469
2  11 7 0 3.14159265358979 4.71238898038469
4 CN 5 0 7 0
0

0101000
+216 0 -213 0 *
Ve
1e-07
1.6 0 -4.2
0 0

0101101
*
Ed
 1e-07 1 1 0
1  7 0 0 3.14159265358979
2  12 5 0 0 3.14159265358979
4 G1 5 0 8 0
0

0101000
+211 0 -213 0 *
Ed
 1e-07 1 1 0
1  8 0 4.71238898038469 6.28318530717959
2  13 5 0 4.71238898038469 6.28318530717959
2  14 7 0 4.71238898038469 6.28318530717959
4 CN 5 0 7 0
0

0101000
+215 0 -211 0 *
Wi

0101100
-214 0 +212 0 -210 0 -209 0 *
Fa
0  1e-07 5 0

0111000
+208 0 *
Ve
1e-07
-2.2 5.51091059616308e-17 0
0 0

0101101
*
Ed
 1e-07 1 1 0
1  9 0 0.299999999999999 4.2
2  15 4 0 0.299999999999999 4.2
2  16 9 0 0.299999999999999 4.2
4 CN 4 0 9 0
0

0101000
+223 0 -206 0 *
Ve
1e-07
-1.3 0 0
0 0

0101101
*
Ed
 1e-07 1 1 0
1  10 0 3.14159265358979 6.28318530717959
2  17 4 0 3.14159265358979 6.28318530717959
4 C0 4 0 10 0
0

0101000
+206 0 -204 0 *
Ed
 1e-07 1 1 0
1  11 0 0.299999999999999 4.2
2  18 4 0 0.299999999999999 4.2
2  19 9 0 0.299999999999999 4.2
4 CN 4 0 9 0
0

0101000
+221 0 -204 0 *
Wi

0101100
+220 0 +205 0 +203 0 -202 0 *
Fa
0  1e-07 4 0

0111000
+201 0 *
Ve
1e-07
1.3 5.51091059616309e-17 0
0 0

0101101
*
Ed
 1e-07 1 1 0
1  12 0 0.299999999999999 4.2
2  20 6 0 0.299999999999999 4.2
2  21 11 0 0.299999999999999 4.2
4 CN 6 0 11 0
0

0101000
+215 0 -199 0 *
Ve
1e-07
2.2 0 0
0 0

0101101
*
Ed
 1e-07 1 1 0
1  13 0 0 3.14159265358979
2  22 6 0 0 3.14159265358979
4 C0 6 0 10 0
0

0101000
+199 0 -197 0 *
Ed
 1e-07 1 1 0
1  14 0 0.299999999999999 4.2
2  23 6 0 0.299999999999999 4.2
2  24 11 0 0.299999999999999 4.2
4 CN 6 0 11 0
0

0101000
+216 0 -197 0 *
Wi

0101100
+214 0 +198 0 +196 0 -195 0 *
Fa
0  1e-07 6 0

0111000
+194 0 *
Ve
1e-07
3.025 0.499999999999998 7.4
0 0

0101101
*
Ve
1e-07
3.025 0.499999999999998 8.4
0 0

0101101
*
Ed
 1e-07 1 1 0
1  15 0 0 0.999999999999999
2  25 12 0 0 0.999999999999999
2  26 13 0 0 0.999999999999999
4 CN 12 0 13 0
0

0101000
+192 0 -191 0 *
Ve
1e-07
0.425 0.499999999999998 8.4
0 0

0101101
*
Ed
 1e-07 1 1 0
1  16 0 0 3.14159265358979
2  27 12 0 0 3.14159265358979
4 C0 12 0 14 0
0

0101000
+189 0 -191 0 *
Ve
1e-07
0.425 0.499999999999998 7.4
0 0

0101101
*
Ed
 1e-07 1 1 0
1  17 0 0 0.999999999999999
2  28 12 0 0 0.999999999999999
2  29 13 0 0 0.999999999999999
4 CN 12 0 13 0
0

0101000
+187 0 -189 0 *
Ed
 1e-07 1 1 0
1  18 0 0 3.14159265358979
2  30 12 0 0 3.14159265358979
4 C0 12 0 15 0
0

0101000
+187 0 -192 0 *
Wi

0101100
+190 0 -188 0 -186 0 +185 0 *
Fa
0  1e-07 12 0

0111000
+184 0 *
Ve
1e-07
-0.425 0.499999999999998 7.4
0 0

0101101
*
Ve
1e-07
-0.425 0.499999999999998 8.4
0 0

0101101
*
Ed
 1e-07 1 1 0
1  19 0 0 0.999999999999999
2  31 16 0 0 0.999999999999999
2  32 17 0 0 0.999999999999999
4 CN 16 0 17 0
0

0101000
+182 0 -181 0 *
Ve
1e-07
-3.025 0.499999999999998 8.4
0 0

0101101
*
Ed
 1e-07 1 1 0
1  20 0 3.14159265358979 6.28318530717959
2  33 16 0 3.14159265358979 6.28318530717959
4 C0 16 0 14 0
0

0101000
+179 0 -181 0 *
Ve
1e-07
-3.025 0.499999999999998 7.4
0 0

0101101
*
Ed
 1e-07 1 1 0
1  21 0 0 0.999999999999999
2  34 16 0 0 0.999999999999999
2  35 17 0 0 0.999999999999999
4 CN 16 0 17 0
0

0101000
+177 0 -179 0 *
Ed
 1e-07 1 1 0
1  22 0 3.14159265358979 6.28318530717959
2  36 16 0 3.14159265358979 6.28318530717959
4 C0 16 0 18 0
0

0101000
+177 0 -182 0 *
Wi

0101100
+180 0 -178 0 -176 0 +175 0 *
Fa
0  1e-07 16 0

0111000
+174 0 *
Ve
1e-07
1.725 2.5 1.6
0 0

0101101
*
Ve
1e-07
1.725 -1.7 1.6
0 0

0101101
*
Ed
 1e-07 1 1 0
1  23 0 3.82842712474619 8.02842712474619
2  37 19 0 3.82842712474619 8.02842712474619
2  38 20 0 3.82842712474619 8.02842712474619
4 CN 19 0 20 0
0

0101000
+172 0 -171 0 *
Ve
1e-07
1.725 -1.7 3.6
0 0

0101101
*
Ed
 1e-07 1 1 0
1  24 0 0 3.14159265358979
2  39 19 0 0 3.14159265358979
4 C0 19 0 21 0
0

0101000
+169 0 -171 0 *
Ve
1e-07
1.725 2.5 3.6
0 0

0101101
*
Ed
 1e-07 1 1 0
1  25 0 3.82842712474619 8.02842712474619
2  40 19 0 3.82842712474619 8.02842712474619
2  41 20 0 3.82842712474619 8.02842712474619
4 CN 19 0 20 0
0

0101000
+167 0 -169 0 *
Ed
 1e-07 1 1 0
1  26 0 0 3.14159265358979
2  42 19 0 0 3.14159265358979
4 C0 19 0 22 0
0

0101000
+172 0 -167 0 *
Wi

0101100
+170 0 -168 0 -166 0 -165 0 *
Fa
0  1e-07 19 0

0111000
+164 0 *
Ve
1e-07
-1.725 2.5 1.6
0 0

0101101
*
Ve
1e-07
-1.725 -1.7 1.6
0 0

0101101
*
Ed
 1e-07 1 1 0
1  27 0 3.82842712474619 8.02842712474619
2  43 23 0 3.82842712474619 8.02842712474619
2  44 24 0 3.82842712474619 8.02842712474619
4 CN 23 0 24 0
0

0101000
+162 0 -161 0 *
Ve
1e-07
-1.725 -1.7 3.6
0 0

0101101
*
Ed
 1e-07 1 1 0
1  28 0 3.14159265358979 6.28318530717959
2  45 23 0 3.14159265358979 6.28318530717959
4 C0 23 0 25 0
0

0101000
+159 0 -161 0 *
Ve
1e-07
-1.725 2.5 3.6
0 0

0101101
*
Ed
 1e-07 1 1 0
1  29 0 3.82842712474619 8.02842712474619
2  46 23 0 3.82842712474619 8.02842712474619
2  47 24 0 3.82842712474619 8.02842712474619
4 CN 23 0 24 0
0

0101000
+157 0 -159 0 *
Ed
 1e-07 1 1 0
1  30 0 0 3.14159265358979
2  48 23 0 0 3.14159265358979
4 C0 23 0 26 0
0

0101000
+162 0 -157 0 *
Wi

0101100
+160 0 -158 0 -156 0 -155 0 *
Fa
0  1e-07 23 0

0111000
+154 0 *
Ed
 1e-07 1 1 0
1  31 0 3.14159265358979 6.28318530717959
2  49 11 0 3.14159265358979 6.28318530717959
4 C0 10 0 11 0
0

0101000
+197 0 -199 0 *
Wi

0101100
-152 0 -196 0 *
Ve
1e-07
3.5 -3.5 0
0 0

0101101
*
Ve
1e-07
3.5 3.5 0
0 0

0101101
*
Ed
 1e-07 1 1 0
1  32 0 0 7
4 C0 10 0 27 0
0

0101000
+150 0 -149 0 *
Ve
1e-07
-3.5 -3.5 0
0 0

0101101
*
Ed
 1e-07 1 1 0
1  33 0 0 7
4 C0 10 0 28 0
0

0101000
+147 0 -150 0 *
Ve
1e-07
-3.5 3.5 0
0 0

0101101
*
Ed
 1e-07 1 1 0
1  34 0 -7 -0
4 C0 10 0 29 0
0

0101000
+145 0 -147 0 *
Ed
 1e-07 1 1 0
1  35 0 -7 -0
4 C0 10 0 30 0
0

0101000
+149 0 -145 0 *
Wi

0101100
-148 0 -146 0 -144 0 -143 0 *
Ed
 1e-07 1 1 0
1  36 0 0 3.14159265358979
2  50 9 0 0 3.14159265358979
4 C0 10 0 9 0
0

0101000
+204 0 -206 0 *
Wi

0101100
-141 0 -203 0 *
Fa
0  1e-07 10 0

0111000
+151 0 +142 0 +140 0 *
Ve
1e-07
3.5 -2.22610418006829 8.4
0 0

0101101
*
Ve
1e-07
3.5 3.5 8.4
0 0

0101101
*
Ed
 1e-07 1 1 0
1  37 0 1.27389581993171 7
4 C0 27 0 14 0
0

0101000
+138 0 -137 0 *
Ve
1e-07
3.5 -3.5 4.89999999999997
0 0

0101101
*
Ed
 1e-07 1 1 0
1  38 0 -0 3.72462220366572
4 C0 27 0 31 0
0

0101000
+138 0 -135 0 *
Ed
 1e-07 1 1 0
1  39 0 3.50000000000003 8.4
4 C0 27 0 28 0
0

0101000
+135 0 -150 0 *
Ed
 1e-07 1 1 0
1  40 0 -0 8.4
4 C0 27 0 30 0
0

0101000
+137 0 -149 0 *
Wi

0101100
-136 0 +134 0 +133 0 +148 0 -132 0 *
Fa
0  1e-07 27 0

0111000
-131 0 *
Ve
1e-07
-3.5 3.5 8.4
0 0

0101101
*
Ed
 1e-07 1 1 0
1  41 0 -0 8.4
4 C0 30 0 29 0
0

0101000
+129 0 -145 0 *
Ed
 1e-07 1 1 0
1  42 0 -7 -0
4 C0 30 0 14 0
0

0101000
+137 0 -129 0 *
Wi

0101100
+143 0 -128 0 -127 0 +132 0 *
Fa
0  1e-07 30 0

0111000
-126 0 *
Ve
1e-07
-3.5 -3.5 4.89999999999997
0 0

0101101
*
Ed
 1e-07 1 1 0
1  43 0 3.50000000000003 8.4
4 C0 29 0 28 0
0

0101000
+124 0 -147 0 *
Ve
1e-07
-3.5 -2.22610418006829 8.4
0 0

0101101
*
Ed
 1e-07 1 1 0
1  44 0 -3.72462220366572 0
4 C0 29 0 31 0
0

0101000
+124 0 -122 0 *
Ed
 1e-07 1 1 0
1  45 0 -7 -1.27389581993171
4 C0 29 0 14 0
0

0101000
+129 0 -122 0 *
Wi

0101100
-123 0 +121 0 -120 0 +128 0 +144 0 *
Fa
0  1e-07 29 0

0111000
-119 0 *
Ve
1e-07
0.3 -3.5 4.7
0 0

0101101
*
Ve
1e-07
0.299999999999999 -3.5 0.5
0 0

0101101
*
Ed
 1e-07 1 1 0
1  46 0 -5.73193435829534e-33 4.2
4 C0 28 0 32 0
0

0101000
+117 0 -116 0 *
Ve
1e-07
3.15 -3.5 4.7
0 0

0101101
*
Ed
 1e-07 1 1 0
1  47 0 0 2.85
4 C0 28 0 33 0
0

0101000
+114 0 -117 0 *
Ve
1e-07
3.15 -3.5 0.5
0 0

0101101
*
Ed
 1e-07 1 1 0
1  48 0 -4.2 0
4 C0 28 0 34 0
0

0101000
+112 0 -114 0 *
Ed
 1e-07 1 1 0
1  49 0 -2.85 0
4 C0 28 0 35 0
0

0101000
+116 0 -112 0 *
Wi

0101100
-115 0 -113 0 -111 0 -110 0 *
Ve
1e-07
-3.15 -3.5 0.5
0 0

0101101
*
Ve
1e-07
-0.299999999999999 -3.5 0.5
0 0

0101101
*
Ed
 1e-07 1 1 0
1  50 0 0 2.85
4 C0 28 0 36 0
0

0101000
+108 0 -107 0 *
Ve
1e-07
-3.15 -3.5 4.7
0 0

0101101
*
Ed
 1e-07 1 1 0
1  51 0 0 4.2
4 C0 28 0 37 0
0

0101000
+105 0 -108 0 *
Ve
1e-07
-0.3 -3.5 4.7
0 0

0101101
*
Ed
 1e-07 1 1 0
1  52 0 -2.85 -0
4 C0 28 0 38 0
0

0101000
+103 0 -105 0 *
Ed
 1e-07 1 1 0
1  53 0 -4.2 0
4 C0 28 0 39 0
0

0101000
+107 0 -103 0 *
Wi

0101100
-106 0 -104 0 -102 0 -101 0 *
Ed
 1e-07 1 1 0
1  54 0 -7 0
4 C0 28 0 31 0
0

0101000
+135 0 -124 0 *
Wi

0101100
-133 0 +99 0 +123 0 +146 0 *
Fa
0  1e-07 28 0

0111000
-109 0 -100 0 -98 0 *
Ed
 1e-07 1 1 0
1  55 0 3.14159265358979 6.28318530717959
2  51 13 0 3.14159265358979 6.28318530717959
4 C0 14 0 13 0
0

0101000
+191 0 -189 0 *
Wi

0101100
-96 0 -188 0 *
Ed
 1e-07 1 1 0
1  56 0 0 3.14159265358979
2  52 17 0 0 3.14159265358979
4 C0 14 0 17 0
0

0101000
+181 0 -179 0 *
Wi

0101100
-94 0 -178 0 *
Ed
 1e-07 1 1 0
1  57 0 -3.5 3.5
4 C0 14 0 31 0
0

0101000
+122 0 -138 0 *
Wi

0101100
+120 0 +92 0 +136 0 +127 0 *
Fa
0  1e-07 14 0

0111000
-95 0 -93 0 -91 0 *
Wi

0101100
-121 0 -99 0 -134 0 -92 0 *
Fa
0  1e-07 31 0

0111000
-89 0 *
Ve
1e-07
-3.15 -1.7 0.5
0 0

0101101
*
Ed
 1e-07 1 1 0
1  58 0 -0 1.8
4 C0 37 0 36 0
0

0101000
+87 0 -108 0 *
Ve
1e-07
-3.15 -1.7 4.7
0 0

0101101
*
Ed
 1e-07 1 1 0
1  59 0 0 4.2
4 C0 37 0 25 0
0

0101000
+85 0 -87 0 *
Ed
 1e-07 1 1 0
1  60 0 -0 1.8
4 C0 37 0 38 0
0

0101000
+85 0 -105 0 *
Wi

0101100
+104 0 -86 0 -84 0 +83 0 *
Fa
0  1e-07 37 0

0111000
-82 0 *
Ve
1e-07
-0.3 -1.7 4.7
0 0

0101101
*
Ed
 1e-07 1 1 0
1  61 0 -2.85 -0
4 C0 38 0 25 0
0

0101000
+80 0 -85 0 *
Ed
 1e-07 1 1 0
1  62 0 -0 1.8
4 C0 38 0 39 0
0

0101000
+80 0 -103 0 *
Wi

0101100
+102 0 -83 0 -79 0 +78 0 *
Fa
0  1e-07 38 0

0111000
-77 0 *
Ve
1e-07
-0.299999999999999 -1.7 0.5
0 0

0101101
*
Ed
 1e-07 1 1 0
1  63 0 -4.2 0
4 C0 39 0 25 0
0

0101000
+75 0 -80 0 *
Ed
 1e-07 1 1 0
1  64 0 -0 1.8
4 C0 39 0 36 0
0

0101000
+75 0 -107 0 *
Wi

0101100
+101 0 -78 0 -74 0 +73 0 *
Fa
0  1e-07 39 0

0111000
-72 0 *
Ed
 1e-07 1 1 0
1  65 0 0 2.85
4 C0 36 0 25 0
0

0101000
+87 0 -75 0 *
Wi

0101100
+106 0 -73 0 -70 0 +86 0 *
Fa
0  1e-07 36 0

0111000
-69 0 *
Ed
 1e-07 1 1 0
1  66 0 0 3.14159265358979
2  53 24 0 0 3.14159265358979
4 C0 25 0 24 0
0

0101000
+161 0 -159 0 *
Wi

0101100
-67 0 -158 0 *
Wi

0101100
+84 0 +70 0 +74 0 +79 0 *
Fa
0  1e-07 25 0

0111000
+66 0 +65 0 *
Ve
1e-07
0.3 -1.7 4.7
0 0

0101101
*
Ed
 1e-07 1 1 0
1  67 0 -0 1.8
4 C0 33 0 32 0
0

0101000
+63 0 -117 0 *
Ve
1e-07
3.15 -1.7 4.7
0 0

0101101
*
Ed
 1e-07 1 1 0
1  68 0 0 2.85
4 C0 33 0 21 0
0

0101000
+61 0 -63 0 *
Ed
 1e-07 1 1 0
1  69 0 -0 1.8
4 C0 33 0 34 0
0

0101000
+61 0 -114 0 *
Wi

0101100
+113 0 -62 0 -60 0 +59 0 *
Fa
0  1e-07 33 0

0111000
-58 0 *
Ve
1e-07
3.15 -1.7 0.5
0 0

0101101
*
Ed
 1e-07 1 1 0
1  70 0 -4.2 0
4 C0 34 0 21 0
0

0101000
+56 0 -61 0 *
Ed
 1e-07 1 1 0
1  71 0 -0 1.8
4 C0 34 0 35 0
0

0101000
+56 0 -112 0 *
Wi

0101100
+111 0 -59 0 -55 0 +54 0 *
Fa
0  1e-07 34 0

0111000
-53 0 *
Ve
1e-07
0.299999999999999 -1.7 0.5
0 0

0101101
*
Ed
 1e-07 1 1 0
1  72 0 -2.85 0
4 C0 35 0 21 0
0

0101000
+51 0 -56 0 *
Ed
 1e-07 1 1 0
1  73 0 -0 1.8
4 C0 35 0 32 0
0

0101000
+51 0 -116 0 *
Wi

0101100
+110 0 -54 0 -50 0 +49 0 *
Fa
0  1e-07 35 0

0111000
-48 0 *
Ed
 1e-07 1 1 0
1  74 0 0 4.2
4 C0 32 0 21 0
0

0101000
+63 0 -51 0 *
Wi

0101100
+115 0 -49 0 -46 0 +62 0 *
Fa
0  1e-07 32 0

0111000
-45 0 *
Ed
 1e-07 1 1 0
1  75 0 3.14159265358979 6.28318530717959
2  54 20 0 3.14159265358979 6.28318530717959
4 C0 21 0 20 0
0

0101000
+171 0 -169 0 *
Wi

0101100
-43 0 -168 0 *
Wi

0101100
+60 0 +46 0 +50 0 +55 0 *
Fa
0  1e-07 21 0

0111000
+42 0 +41 0 *
Ed
 1e-07 1 1 0
1  76 0 3.14159265358979 6.28318530717959
2  55 24 0 3.14159265358979 6.28318530717959
4 C0 24 0 26 0
0

0101000
+157 0 -162 0 *
Wi

0101100
-67 0 -160 0 -39 0 +156 0 *
Fa
0  1e-07 24 0

0111000
+38 0 *
Wi

0101100
-155 0 -39 0 *
Fa
0  1e-07 26 0

0111000
+36 0 *
Ed
 1e-07 1 1 0
1  77 0 3.14159265358979 6.28318530717959
2  56 20 0 3.14159265358979 6.28318530717959
4 C0 20 0 22 0
0

0101000
+167 0 -172 0 *
Wi

0101100
-43 0 -170 0 -34 0 +166 0 *
Fa
0  1e-07 20 0

0111000
+33 0 *
Wi

0101100
-165 0 -34 0 *
Fa
0  1e-07 22 0

0111000
+31 0 *
Ed
 1e-07 1 1 0
1  78 0 0 3.14159265358979
2  57 17 0 0 3.14159265358979
4 C0 17 0 18 0
0

0101000
+182 0 -177 0 *
Wi

0101100
-94 0 -180 0 +29 0 +176 0 *
Fa
0  1e-07 17 0

0111000
+28 0 *
Wi

0101100
+29 0 +175 0 *
Fa
0  1e-07 18 0

0111000
+26 0 *
Ed
 1e-07 1 1 0
1  79 0 3.14159265358979 6.28318530717959
2  58 13 0 3.14159265358979 6.28318530717959
4 C0 13 0 15 0
0

0101000
+192 0 -187 0 *
Wi

0101100
-96 0 -190 0 +24 0 +186 0 *
Fa
0  1e-07 13 0

0111000
+23 0 *
Wi

0101100
+24 0 +185 0 *
Fa
0  1e-07 15 0

0111000
-21 0 *
Ed
 1e-07 1 1 0
1  80 0 0 3.14159265358979
2  59 11 0 0 3.14159265358979
2  60 7 0 0 3.14159265358979
4 G1 11 0 7 0
0

0101000
+215 0 -216 0 *
Wi

0101100
-198 0 +19 0 +195 0 +152 0 *
Fa
0  1e-07 11 0

0111000
+18 0 *
Ed
 1e-07 1 1 0
1  81 0 3.14159265358979 6.28318530717959
2  61 7 0 3.14159265358979 6.28318530717959
4 G1 8 0 7 0
0

0101000
+213 0 -211 0 *
Wi

0101100
+210 0 +16 0 *
Fa
0  1e-07 8 0

0111000
+15 0 *
Ed
 1e-07 1 1 0
1  82 0 3.14159265358979 6.28318530717959
2  62 9 0 3.14159265358979 6.28318530717959
2  63 3 0 3.14159265358979 6.28318530717959
4 G1 9 0 3 0
0

0101000
+223 0 -221 0 *
Wi

0101100
-205 0 +13 0 +202 0 +141 0 *
Fa
0  1e-07 9 0

0111000
+12 0 *
Ed
 1e-07 1 1 0
1  83 0 0 3.14159265358979
2  64 3 0 0 3.14159265358979
4 G1 2 0 3 0
0

0101000
+225 0 -226 0 *
Wi

0101100
+10 0 +224 0 *
Fa
0  1e-07 2 0

0111000
-9 0 *
Wi

0101100
-212 0 -19 0 +209 0 -16 0 *
Fa
0  1e-07 7 0

0111000
+7 0 *
Wi

0101100
-222 0 -10 0 +219 0 -13 0 *
Fa
0  1e-07 3 0

0111000
+5 0 *
Sh

0101100
+217 0 +207 0 +200 0 +193 0 -183 0 -173 0 -163 0 -153 0 +139 0 -130 0 
-125 0 -118 0 -97 0 -90 0 -88 0 -81 0 -76 0 -71 0 -68 0 +64 0 
-57 0 -52 0 -47 0 -44 0 +40 0 -37 0 +35 0 -32 0 +30 0 -27 0 
+25 0 -22 0 -20 0 +17 0 +14 0 +11 0 -8 0 +6 0 +4 0 *
So

0100000
+3 0 *
Co

1100000
+2 1 *

+1 0 