DBRep_DrawableShape

CASCADE Topology V1, (c) Matra-Datavision
Locations 1
1
              1               0               0               0 
              0               1               0               0 
              0               0               1               0 
Curve2ds 104
1 6.2831853071795862 0 0 1 
1 0 0 0 1 
1 0 9.1848509936049944e-17 1 0 
1 3.1415926535897931 0 0 1 
1 3.1415926535897931 0 0 1 
1 0 -1.6599999999999999 1 0 
1 6.2831853071795862 0 0 1 
1 0 0 0 1 
1 0 9.1848509936049944e-17 1 0 
1 3.1415926535897931 0 0 1 
1 3.1415926535897931 0 0 1 
1 0 -1.6599999999999999 1 0 
1 6.2831853071795862 0 0 1 
1 0 0 0 1 
1 0 9.1848509936049944e-17 1 0 
1 3.1415926535897931 0 0 1 
1 3.1415926535897931 0 0 1 
1 0 -1.6599999999999999 1 0 
1 6.2831853071795862 0 0 1 
1 0 0 0 1 
1 0 9.1848509936049944e-17 1 0 
1 3.1415926535897931 0 0 1 
1 3.1415926535897931 0 0 1 
1 0 -1.6599999999999999 1 0 
1 6.2831853071795862 0 0 1 
1 0 0 0 1 
1 0 9.1848509936049944e-17 1 0 
1 3.1415926535897931 0 0 1 
1 3.1415926535897931 0 0 1 
1 0 -1.6599999999999999 1 0 
1 6.2831853071795862 0 0 1 
1 0 0 0 1 
1 0 9.1848509936049944e-17 1 0 
1 3.1415926535897931 0 0 1 
1 3.1415926535897931 0 0 1 
1 0 -1.6599999999999999 1 0 
1 6.2831853071795862 0 0 1 
1 0 0 0 1 
1 0 9.1848509936049944e-17 1 0 
1 3.1415926535897931 0 0 1 
1 3.1415926535897931 0 0 1 
1 0 -1.6599999999999999 1 0 
1 6.2831853071795862 0 0 1 
1 0 0 0 1 
1 0 9.1848509936050708e-17 1 0 
1 3.1415926535897931 0 0 1 
1 3.1415926535897931 0 0 1 
1 9.4247779607693793 -1.6599999999999999 -1 0 
1 6.2831853071795862 0 0 1 
1 0 0 0 1 
1 0 9.1848509936050708e-17 1 0 
1 3.1415926535897931 0 0 1 
1 3.1415926535897931 0 0 1 
1 9.4247779607693793 -1.6599999999999999 -1 0 
1 6.2831853071795862 0 0 1 
1 0 0 0 1 
1 0 1.3322676295501878e-15 1 0 
1 3.1415926535897931 0 0 1 
1 3.1415926535897931 0 0 1 
1 0 -1.6600000000000017 1 0 
1 6.2831853071795862 0 0 1 
1 0 0 0 1 
1 0 1.3322676295501878e-15 1 0 
1 3.1415926535897931 0 0 1 
1 3.1415926535897931 0 0 1 
1 0 -1.6600000000000017 1 0 
1 0 9.1848509936049944e-17 1 0 
1 0 9.1848509936049944e-17 1 0 
1 0 9.1848509936049944e-17 1 0 
1 0 9.1848509936049944e-17 1 0 
1 0 9.1848509936049944e-17 1 0 
1 0 9.1848509936050708e-17 1 0 
1 0 9.1848509936050708e-17 1 0 
1 0 -1.6600000000000017 1 0 
1 0 -1.6600000000000017 1 0 
1 -3.1415926535897949 1.6599999999999999 1 0 
1 3.1415926535897931 1.6599999999999999 1 0 
1 3.1415926535897922 1.6599999999999999 1 0 
1 -3.1415926535897931 1.6599999999999999 1 0 
1 0 9.1848509936049944e-17 1 0 
1 0 9.1848509936049944e-17 1 0 
1 6.2831853071795862 0 0 -1 
1 0 0 0 1 
1 4.7123889803846897 0 0 -1 
1 4.7123889803846897 0 0 1 
1 3.1415926535897931 0 0 -1 
1 3.1415926535897931 0 0 1 
1 1.5707963267948963 0 0 1 
1 1.5707963267948963 0 0 -1 
1 0 -1.6599999999999999 1 0 
1 0 -1.6599999999999999 1 0 
1 0 -1.6599999999999999 1 0 
1 0 -1.6599999999999999 1 0 
1 0 -1.6599999999999999 1 0 
1 0 -1.6599999999999999 1 0 
1 0 -1.6599999999999999 1 0 
1 3.1415926535897931 -1.6599999999999999 -1 0 
1 3.1415926535897931 -1.6599999999999999 -1 0 
1 0 1.3322676295501878e-15 1 0 
1 0 1.3322676295501878e-15 1 0 
1 3.1415926535897931 0 -1 0 
1 3.1415926535897931 0 -1 0 
1 9.4247779607693793 0 -1 0 
1 9.4247779607693793 0 -1 0 
Curves 186
1 -8.1200000000000028 -7.3000000000000043 0 -0 -0 -1 
2 -7.6200000000000019 -7.3000000000000043 -9.1848509936049944e-17 -0 -0 -1 -1 0 0 0 1 -0 0.50000000000000044
1 -7.1200000000000019 -7.3000000000000043 -0 -0 -0 -1 
2 -7.6200000000000019 -7.3000000000000043 1.6599999999999999 -0 -0 -1 -1 0 0 0 1 -0 0.50000000000000044
1 -5.5800000000000027 -7.3000000000000043 0 -0 -0 -1 
2 -5.0800000000000027 -7.3000000000000043 -9.1848509936049944e-17 -0 -0 -1 -1 0 0 0 1 -0 0.49999999999999956
1 -4.5800000000000036 -7.3000000000000043 -0 -0 -0 -1 
2 -5.0800000000000027 -7.3000000000000043 1.6599999999999999 -0 -0 -1 -1 0 0 0 1 -0 0.49999999999999956
1 -3.0400000000000018 -7.3000000000000043 0 -0 -0 -1 
2 -2.5400000000000023 -7.3000000000000043 -9.1848509936049944e-17 -0 -0 -1 -1 0 0 0 1 -0 0.49999999999999956
1 -2.0400000000000027 -7.3000000000000043 -0 -0 -0 -1 
2 -2.5400000000000023 -7.3000000000000043 1.6599999999999999 -0 -0 -1 -1 0 0 0 1 -0 0.49999999999999956
1 -0.50000000000000144 -7.3000000000000034 0 -0 -0 -1 
2 -1.7347234759768071e-15 -7.3000000000000034 -9.1848509936049944e-17 -0 -0 -1 -1 0 0 0 1 -0 0.49999999999999978
1 0.49999999999999795 -7.3000000000000034 -0 -0 -0 -1 
2 -1.7347234759768071e-15 -7.3000000000000034 1.6599999999999999 -0 -0 -1 -1 0 0 0 1 -0 0.49999999999999956
1 2.0399999999999983 -7.3000000000000034 0 -0 -0 -1 
2 2.5399999999999978 -7.3000000000000034 -9.1848509936049944e-17 -0 -0 -1 -1 0 0 0 1 -0 0.49999999999999956
1 3.0399999999999974 -7.3000000000000034 -0 -0 -0 -1 
2 2.5399999999999978 -7.3000000000000034 1.6599999999999999 -0 -0 -1 -1 0 0 0 1 -0 0.49999999999999956
1 4.5799999999999983 -7.3000000000000025 0 -0 -0 -1 
2 5.0799999999999974 -7.3000000000000025 -9.1848509936049944e-17 -0 -0 -1 -1 0 0 0 1 -0 0.49999999999999956
1 5.5799999999999974 -7.3000000000000025 -0 -0 -0 -1 
2 5.0799999999999974 -7.3000000000000025 1.6599999999999999 -0 -0 -1 -1 0 0 0 1 -0 0.49999999999999956
1 7.1199999999999974 -7.3000000000000025 0 -0 -0 -1 
2 7.6199999999999983 -7.3000000000000025 -9.1848509936049944e-17 -0 -0 -1 -1 0 0 0 1 -0 0.50000000000000044
1 8.1199999999999992 -7.3000000000000025 -0 -0 -0 -1 
2 7.6199999999999983 -7.3000000000000025 1.6599999999999999 -0 -0 -1 -1 0 0 0 1 -0 0.50000000000000044
1 1.250000000000006 6.3000000000000016 0 -0 -0 -1 
2 1.75 6.3000000000000016 -9.1848509936050708e-17 -0 -0 -1 -1 0 0 0 1 -0 0.49999999999999589
1 2.2499999999999942 6.3000000000000016 0 -0 -0 -1 
2 1.75 6.3000000000000016 1.6599999999999999 0 0 1 1 0 -0 -0 1 0 0.49999999999999417
1 -2.2499999999999942 6.3000000000000016 0 -0 -0 -1 
2 -1.75 6.3000000000000016 -9.1848509936050708e-17 -0 -0 -1 -1 0 0 0 1 -0 0.49999999999999589
1 -1.250000000000006 6.3000000000000016 0 -0 -0 -1 
2 -1.75 6.3000000000000016 1.6599999999999999 0 0 1 1 0 -0 -0 1 0 0.49999999999999395
1 -5.1000000000000103 7.1000000000000014 1.6599999999999999 -0 -0 1 
2 -6.3500000000000014 7.1000000000000014 1.6600000000000013 -0 -0 1 1 0 0 -0 1 0 1.2499999999999871
1 -7.5999999999999934 7.1000000000000014 1.6599999999999999 -0 -0 1 
2 -6.3500000000000014 7.1000000000000014 -1.7347234759768071e-15 -0 -0 1 1 0 0 -0 1 0 1.249999999999996
1 7.5999999999999934 7.1000000000000014 1.6599999999999999 -0 -0 1 
2 6.3500000000000014 7.1000000000000014 1.6600000000000013 -0 -0 1 1 0 0 -0 1 0 1.2499999999999871
1 5.1000000000000103 7.1000000000000014 1.6599999999999999 -0 -0 1 
2 6.3500000000000014 7.1000000000000014 -1.7347234759768071e-15 -0 -0 1 1 0 0 -0 1 0 1.249999999999996
1 -5.375 -0.24999999999999978 0 0 -1 0 
1 -5.375 -0.24999999999999978 0 1 -0 -0 
1 -6.6249999999999991 -0.24999999999999978 0 -0 1 -0 
1 -5.375 -2.7500000000000004 0 -1 0 0 
1 -7.6500000000000004 0.87499999999999967 0 -1 -0 -0 
1 -5.1500000000000012 0.87499999999999967 0 -0 -1 -0 
1 -7.6500000000000004 2.1249999999999996 0 1 0 0 
1 -7.6500000000000004 0.87499999999999967 0 0 1 0 
1 3.9500000000000011 2.1249999999999991 0 0 -1 0 
1 3.9500000000000011 2.1249999999999991 0 1 -1.7347234759768068e-16 -0 
1 1.4500000000000008 2.1249999999999996 0 -0 1 -0 
1 3.9500000000000011 0.87499999999999967 0 -1 0 0 
1 -1.5000000000000004 -3.5000000000000031 0 0 1 0 
1 1.4999999999999996 -3.5000000000000031 -0 -1 0 0 
1 1.4999999999999996 -3.5000000000000031 -0 -0 -1 -0 
1 1.4999999999999996 -0.500000000000003 -0 1 7.2280144832366958e-17 -0 
2 -5.0800000000000027 -7.3000000000000043 -9.1848509936049944e-17 -0 -0 -1 -1 0 0 0 1 -0 0.49999999999999956
2 -2.5400000000000023 -7.3000000000000043 -9.1848509936049944e-17 -0 -0 -1 -1 0 0 0 1 -0 0.49999999999999956
2 2.5399999999999978 -7.3000000000000034 -9.1848509936049944e-17 -0 -0 -1 -1 0 0 0 1 -0 0.49999999999999956
2 5.0799999999999974 -7.3000000000000025 -9.1848509936049944e-17 -0 -0 -1 -1 0 0 0 1 -0 0.49999999999999956
2 7.6199999999999983 -7.3000000000000025 -9.1848509936049944e-17 -0 -0 -1 -1 0 0 0 1 -0 0.50000000000000044
2 1.75 6.3000000000000016 -9.1848509936050708e-17 -0 -0 -1 -1 0 0 0 1 -0 0.49999999999999589
2 -1.75 6.3000000000000016 -9.1848509936050708e-17 -0 -0 -1 -1 0 0 0 1 -0 0.49999999999999589
2 -6.3500000000000014 7.1000000000000014 -1.7347234759768071e-15 -0 -0 1 1 0 0 -0 1 0 1.249999999999996
2 6.3500000000000014 7.1000000000000014 -1.7347234759768071e-15 -0 -0 1 1 0 0 -0 1 0 1.249999999999996
1 8.9000000000000004 9.8000000000000007 0 -1 -1.9491275010975362e-16 0 
2 6.2000000000000011 7.1000000000000014 0 -0 -0 -1 1 1.9274705288631182e-15 -0 1.9274705288631182e-15 -1 0 2.7000000000000011
1 8.9000000000000004 -9.8000000000000007 0 0 1 0 
2 6.2000000000000011 -7.1000000000000032 0 -0 -0 -1 1 0 0 0 -1 0 2.7000000000000011
1 8.9000000000000004 -9.8000000000000007 0 1 9.7456375054876822e-17 -0 
2 -6.1999999999999993 -7.1000000000000041 0 -0 -0 -1 1 9.6373526443155947e-16 -0 9.6373526443155947e-16 -1 0 2.7000000000000002
1 -8.8999999999999986 -9.8000000000000025 0 8.850629979473506e-17 -1 -0 
2 -6.2000000000000011 7.0999999999999952 0 -0 -0 -1 1 9.6373526443155947e-16 -0 9.6373526443155947e-16 -1 0 2.7000000000000002
2 -1.7347234759768071e-15 -7.3000000000000034 -9.1848509936049944e-17 -0 -0 -1 -1 0 0 0 1 -0 0.49999999999999978
2 -7.6200000000000019 -7.3000000000000043 -9.1848509936049944e-17 -0 -0 -1 -1 0 0 0 1 -0 0.50000000000000044
1 5.1500000000000012 0.87499999999999967 0 0 1 0 
1 7.6500000000000004 0.87499999999999967 0 -1 0 0 
1 7.6500000000000004 0.87499999999999967 0 -0 -1 -0 
1 7.6500000000000004 2.1249999999999996 0 1 -0 -0 
1 -3.9500000000000011 2.1249999999999991 0 -0 1 -0 
1 -3.9500000000000011 0.87499999999999967 0 -1 -0 -0 
1 -1.4500000000000008 2.1249999999999996 0 0 -1 0 
1 -3.9500000000000011 2.1249999999999991 0 1 1.7347234759768068e-16 0 
1 -3.1750000000000003 -0.24999999999999978 0 0 -1 0 
1 -3.1750000000000003 -0.24999999999999978 0 1 -0 -0 
1 -4.4249999999999998 -0.24999999999999978 0 -0 1 -0 
1 -3.1750000000000003 -2.7500000000000004 0 -1 0 0 
1 -3.6000000000000005 -3.7000000000000037 0 0 -1 0 
1 -3.6000000000000005 -3.7000000000000037 0 1 -0 -0 
1 -6 -3.7000000000000037 0 -0 1 -0 
1 -3.6000000000000005 -5.0000000000000036 0 -1 0 0 
1 -8.8999999999999986 -7.1000000000000041 1.6599999999999999 -0 -0 1 
1 -8.8999999999999986 -9.8000000000000025 1.6599999999999999 8.850629979473506e-17 -1 -0 
1 -8.9000000000000004 7.0999999999999952 1.6599999999999999 0 0 -1 
1 6.2000000000000011 -9.8000000000000007 1.6599999999999999 -0 -0 1 
1 8.9000000000000004 -9.8000000000000007 1.6599999999999999 1 9.7456375054876822e-17 -0 
1 -6.1999999999999993 -9.8000000000000025 1.6599999999999999 0 0 -1 
1 8.9000000000000004 7.1000000000000005 1.6599999999999999 -0 -0 1 
1 8.9000000000000004 -9.8000000000000007 1.6599999999999999 0 1 0 
1 8.9000000000000004 -7.1000000000000032 1.6599999999999999 0 0 -1 
1 8.9000000000000004 9.8000000000000007 1.6599999999999999 -1 -1.9491275010975362e-16 0 
1 6.2000000000000002 9.8000000000000007 1.6599999999999999 0 0 -1 
1 -6.200000000000002 9.7999999999999972 1.6599999999999999 -0 -0 1 
2 -7.6200000000000019 -7.3000000000000043 1.6599999999999999 -0 -0 -1 -1 0 0 0 1 -0 0.50000000000000044
2 -5.0800000000000027 -7.3000000000000043 1.6599999999999999 -0 -0 -1 -1 0 0 0 1 -0 0.49999999999999956
2 -2.5400000000000023 -7.3000000000000043 1.6599999999999999 -0 -0 -1 -1 0 0 0 1 -0 0.49999999999999956
2 -1.7347234759768071e-15 -7.3000000000000034 1.6599999999999999 -0 -0 -1 -1 0 0 0 1 -0 0.49999999999999956
2 2.5399999999999978 -7.3000000000000034 1.6599999999999999 -0 -0 -1 -1 0 0 0 1 -0 0.49999999999999956
2 5.0799999999999974 -7.3000000000000025 1.6599999999999999 -0 -0 -1 -1 0 0 0 1 -0 0.49999999999999956
2 7.6199999999999983 -7.3000000000000025 1.6599999999999999 -0 -0 -1 -1 0 0 0 1 -0 0.50000000000000044
2 1.75 6.3000000000000016 1.6599999999999999 0 0 1 1 0 -0 -0 1 0 0.49999999999999417
2 -1.75 6.3000000000000016 1.6599999999999999 0 0 1 1 0 -0 -0 1 0 0.49999999999999395
2 -6.3500000000000014 7.1000000000000014 1.6600000000000013 -0 -0 1 1 0 0 -0 1 0 1.2499999999999871
2 6.3500000000000014 7.1000000000000014 1.6600000000000013 -0 -0 1 1 0 0 -0 1 0 1.2499999999999871
2 6.2000000000000011 7.1000000000000014 1.6599999999999999 0 0 1 1 0 -0 -0 1 0 2.7000000000000011
2 -6.2000000000000011 7.0999999999999952 1.6599999999999999 0 0 1 1 0 -0 -0 1 0 2.7000000000000002
2 -6.1999999999999993 -7.1000000000000041 1.6599999999999999 0 0 1 1 0 -0 -0 1 0 2.7000000000000002
2 6.2000000000000011 -7.1000000000000032 1.6599999999999999 0 0 1 1 0 -0 -0 1 0 2.7000000000000011
1 -1.5000000000000004 -0.50000000000000322 -1.2 -0 -0 1 
1 -1.5000000000000004 -3.5000000000000031 -1.2 0 1 0 
1 -1.5000000000000004 -3.5000000000000031 -1.2 -0 -0 1 
1 1.4999999999999996 -0.500000000000003 -1.2 -0 -0 1 
1 1.4999999999999996 -0.500000000000003 -1.2 1 7.2280144832366958e-17 -0 
1 1.4999999999999996 -3.5000000000000031 -1.2 -0 -0 1 
1 1.4999999999999996 -3.5000000000000031 -1.2 -0 -1 -0 
1 1.4999999999999996 -3.5000000000000031 -1.2 -1 0 0 
1 5.1500000000000012 2.1249999999999996 -1.2 -0 -0 1 
1 5.1500000000000012 0.87499999999999967 -1.2 0 1 0 
1 5.1500000000000012 0.87499999999999967 -1.2 -0 -0 1 
1 7.6500000000000004 2.1249999999999996 -1.2 -0 -0 1 
1 7.6500000000000004 2.1249999999999996 -1.2 1 -0 -0 
1 7.6500000000000004 0.87499999999999967 -1.2 -0 -0 1 
1 7.6500000000000004 0.87499999999999967 -1.2 -0 -1 -0 
1 7.6500000000000004 0.87499999999999967 -1.2 -1 0 0 
1 3.9500000000000011 0.87499999999999967 -1.2 -0 -0 1 
1 3.9500000000000011 2.1249999999999991 -1.2 0 -1 0 
1 3.9500000000000011 2.1249999999999991 -1.2 -0 -0 1 
1 1.4500000000000008 0.87499999999999967 -1.2 -0 -0 1 
1 3.9500000000000011 0.87499999999999967 -1.2 -1 0 0 
1 1.4500000000000008 2.1249999999999996 -1.2 -0 -0 1 
1 1.4500000000000008 2.1249999999999996 -1.2 -0 1 -0 
1 3.9500000000000011 2.1249999999999991 -1.2 1 -1.7347234759768068e-16 -0 
1 -3.9500000000000011 2.1249999999999991 -1.2 -0 -0 1 
1 -3.9500000000000011 2.1249999999999991 -1.2 -0 1 -0 
1 -3.9500000000000011 0.87499999999999967 -1.2 -0 -0 1 
1 -1.4500000000000008 2.1249999999999996 -1.2 -0 -0 1 
1 -3.9500000000000011 2.1249999999999991 -1.2 1 1.7347234759768068e-16 0 
1 -1.4500000000000008 0.87499999999999967 -1.2 -0 -0 1 
1 -1.4500000000000008 2.1249999999999996 -1.2 0 -1 0 
1 -3.9500000000000011 0.87499999999999967 -1.2 -1 -0 -0 
1 -7.6500000000000004 0.87499999999999967 -1.2 -0 -0 1 
1 -7.6500000000000004 0.87499999999999967 -1.2 -1 -0 -0 
1 -5.1500000000000012 0.87499999999999967 -1.2 -0 -0 1 
1 -7.6500000000000004 2.1249999999999996 -1.2 -0 -0 1 
1 -7.6500000000000004 0.87499999999999967 -1.2 0 1 0 
1 -5.1500000000000012 2.1249999999999996 -1.2 -0 -0 1 
1 -7.6500000000000004 2.1249999999999996 -1.2 1 0 0 
1 -5.1500000000000012 0.87499999999999967 -1.2 -0 -1 -0 
1 -3.1750000000000003 -2.7500000000000004 -1.2 -0 -0 1 
1 -3.1750000000000003 -0.24999999999999978 -1.2 0 -1 0 
1 -3.1750000000000003 -0.24999999999999978 -1.2 -0 -0 1 
1 -4.4249999999999998 -2.7500000000000004 -1.2 -0 -0 1 
1 -3.1750000000000003 -2.7500000000000004 -1.2 -1 0 0 
1 -4.4249999999999998 -0.24999999999999978 -1.2 -0 -0 1 
1 -4.4249999999999998 -0.24999999999999978 -1.2 -0 1 -0 
1 -3.1750000000000003 -0.24999999999999978 -1.2 1 -0 -0 
1 -5.375 -2.7500000000000004 -1.2 -0 -0 1 
1 -5.375 -0.24999999999999978 -1.2 0 -1 0 
1 -5.375 -0.24999999999999978 -1.2 -0 -0 1 
1 -6.6249999999999991 -2.7500000000000004 -1.2 -0 -0 1 
1 -5.375 -2.7500000000000004 -1.2 -1 0 0 
1 -6.6249999999999991 -0.24999999999999978 -1.2 -0 -0 1 
1 -6.6249999999999991 -0.24999999999999978 -1.2 -0 1 -0 
1 -5.375 -0.24999999999999978 -1.2 1 -0 -0 
1 -3.6000000000000005 -5.0000000000000036 -0.5 -0 -0 1 
1 -3.6000000000000005 -3.7000000000000037 -0.5 0 -1 0 
1 -3.6000000000000005 -3.7000000000000037 -0.5 -0 -0 1 
1 -6 -5.0000000000000036 -0.5 -0 -0 1 
1 -3.6000000000000005 -5.0000000000000036 -0.5 -1 0 0 
1 -6 -3.7000000000000037 -0.5 -0 -0 1 
1 -6 -3.7000000000000037 -0.5 -0 1 -0 
1 -3.6000000000000005 -3.7000000000000037 -0.5 1 -0 -0 
Polygon3D 0
PolygonOnTriangulations 0
Surfaces 72
2 -7.6200000000000019 -7.3000000000000043 -0 -0 -0 -1 -1 0 0 0 1 -0 0.50000000000000044
2 -7.6200000000000019 -7.3000000000000043 -0 -0 -0 -1 -1 0 0 0 1 -0 0.50000000000000044
1 0 0 0 0 0 1 1 0 -0 -0 1 0 
1 0 0 1.6599999999999999 0 0 1 1 0 -0 -0 1 0 
2 -5.0800000000000027 -7.3000000000000043 -0 -0 -0 -1 -1 0 0 0 1 -0 0.49999999999999956
2 -5.0800000000000027 -7.3000000000000043 -0 -0 -0 -1 -1 0 0 0 1 -0 0.49999999999999956
2 -2.5400000000000023 -7.3000000000000043 -0 -0 -0 -1 -1 0 0 0 1 -0 0.49999999999999956
2 -2.5400000000000023 -7.3000000000000043 -0 -0 -0 -1 -1 0 0 0 1 -0 0.49999999999999956
2 -1.7347234759768071e-15 -7.3000000000000034 -0 -0 -0 -1 -1 0 0 0 1 -0 0.49999999999999967
2 -1.7347234759768071e-15 -7.3000000000000034 -0 -0 -0 -1 -1 0 0 0 1 -0 0.49999999999999967
2 2.5399999999999978 -7.3000000000000034 -0 -0 -0 -1 -1 0 0 0 1 -0 0.49999999999999956
2 2.5399999999999978 -7.3000000000000034 -0 -0 -0 -1 -1 0 0 0 1 -0 0.49999999999999956
2 5.0799999999999974 -7.3000000000000025 -0 -0 -0 -1 -1 0 0 0 1 -0 0.49999999999999956
2 5.0799999999999974 -7.3000000000000025 -0 -0 -0 -1 -1 0 0 0 1 -0 0.49999999999999956
2 7.6199999999999983 -7.3000000000000025 -0 -0 -0 -1 -1 0 0 0 1 -0 0.50000000000000044
2 7.6199999999999983 -7.3000000000000025 -0 -0 -0 -1 -1 0 0 0 1 -0 0.50000000000000044
2 1.75 6.3000000000000016 0 -0 -0 -1 -1 0 0 0 1 -0 0.49999999999999395
2 1.75 6.3000000000000016 0 -0 -0 -1 -1 0 0 0 1 -0 0.49999999999999395
2 -1.75 6.3000000000000016 0 -0 -0 -1 -1 0 0 0 1 -0 0.49999999999999417
2 -1.75 6.3000000000000016 0 -0 -0 -1 -1 0 0 0 1 -0 0.49999999999999417
2 -6.3500000000000014 7.1000000000000014 1.6599999999999999 -0 -0 1 1 0 0 -0 1 0 1.2499999999999916
2 -6.3500000000000014 7.1000000000000014 1.6599999999999999 -0 -0 1 1 0 0 -0 1 0 1.2499999999999916
2 6.3500000000000014 7.1000000000000014 1.6599999999999999 -0 -0 1 1 0 0 -0 1 0 1.2499999999999916
2 6.3500000000000014 7.1000000000000014 1.6599999999999999 -0 -0 1 1 0 0 -0 1 0 1.2499999999999916
1 -5.375 -0.24999999999999978 -1.2 -1 0 -0 0 0 1 0 1 -0 
1 -5.375 -0.24999999999999978 -1.2 0 -1 -0 0 0 -1 1 0 0 
1 -6.6249999999999991 -0.24999999999999978 -1.2 1 0 0 0 0 -1 -0 1 0 
1 -5.375 -2.7500000000000004 -1.2 0 1 0 0 -0 1 1 0 -0 
1 -7.6500000000000004 0.87499999999999967 -1.2 -0 1 0 0 0 1 1 0 -0 
1 -5.1500000000000012 0.87499999999999967 -1.2 -1 0 0 0 0 1 0 1 -0 
1 -7.6500000000000004 2.1249999999999996 -1.2 0 -1 0 0 -0 -1 1 0 0 
1 -7.6500000000000004 0.87499999999999967 -1.2 1 -0 0 0 0 -1 0 1 0 
1 3.9500000000000011 2.1249999999999991 -1.2 -1 0 -0 0 0 1 0 1 -0 
1 3.9500000000000011 2.1249999999999991 -1.2 -1.7347234759768066e-16 -1 0 1 -1.7347234759768066e-16 0 0 0 1 
1 1.4500000000000008 2.1249999999999996 -1.2 1 0 0 0 0 -1 -0 1 0 
1 3.9500000000000011 0.87499999999999967 -1.2 0 1 0 0 -0 1 1 0 -0 
1 -1.5000000000000004 -3.5000000000000031 -1.2 1 -0 0 0 0 -1 0 1 0 
1 1.4999999999999996 -3.5000000000000031 -1.2 0 1 0 0 -0 1 1 0 -0 
1 1.4999999999999996 -3.5000000000000031 -1.2 -1 0 0 0 0 1 0 1 -0 
1 1.4999999999999996 -0.500000000000003 -1.2 7.2280144832366958e-17 -1 0 1 7.2280144832366958e-17 0 -0 0 1 
1 8.9000000000000004 9.8000000000000007 1.6599999999999999 1.9491275010975367e-16 -1 0 1 1.9491275010975367e-16 0 -0 0 1 
2 6.2000000000000011 7.1000000000000014 1.6599999999999999 0 0 -1 -1 0 0 0 1 0 2.7000000000000002
1 8.9000000000000004 -9.8000000000000007 1.6599999999999999 -1 0 0 0 0 1 0 1 -0 
2 6.2000000000000011 -7.1000000000000032 1.6599999999999999 0 0 -1 -1 0 0 0 1 0 2.7000000000000002
1 8.9000000000000004 -9.8000000000000007 1.6599999999999999 -9.7456375054876835e-17 1 0 -1 -9.7456375054876835e-17 0 0 0 1 
2 -6.1999999999999993 -7.1000000000000041 1.6599999999999999 0 0 -1 -1 0 0 0 1 0 2.6999999999999993
1 -8.8999999999999986 -9.8000000000000025 1.6599999999999999 1 8.8506299794735072e-17 -0 -8.8506299794735072e-17 1 0 0 0 1 
2 -6.2000000000000011 7.0999999999999952 1.6599999999999999 0 0 -1 -1 0 0 0 1 0 2.7000000000000011
1 5.1500000000000012 0.87499999999999967 -1.2 1 -0 0 0 0 -1 0 1 0 
1 7.6500000000000004 0.87499999999999967 -1.2 0 1 0 0 -0 1 1 0 -0 
1 7.6500000000000004 0.87499999999999967 -1.2 -1 0 0 0 0 1 0 1 -0 
1 7.6500000000000004 2.1249999999999996 -1.2 0 -1 -0 0 0 -1 1 0 0 
1 -3.9500000000000011 2.1249999999999991 -1.2 1 0 0 0 0 -1 -0 1 0 
1 -3.9500000000000011 0.87499999999999967 -1.2 -0 1 0 0 0 1 1 0 -0 
1 -1.4500000000000008 2.1249999999999996 -1.2 -1 0 -0 0 0 1 0 1 -0 
1 -3.9500000000000011 2.1249999999999991 -1.2 1.7347234759768066e-16 -1 0 1 1.7347234759768066e-16 0 -0 0 1 
1 -3.1750000000000003 -0.24999999999999978 -1.2 -1 0 -0 0 0 1 0 1 -0 
1 -3.1750000000000003 -0.24999999999999978 -1.2 0 -1 -0 0 0 -1 1 0 0 
1 -4.4249999999999998 -0.24999999999999978 -1.2 1 0 0 0 0 -1 -0 1 0 
1 -3.1750000000000003 -2.7500000000000004 -1.2 0 1 0 0 -0 1 1 0 -0 
1 -3.6000000000000005 -3.7000000000000037 -0.5 -1 0 -0 0 0 1 0 1 -0 
1 -3.6000000000000005 -3.7000000000000037 -0.5 0 -1 -0 0 0 -1 1 0 0 
1 -6 -3.7000000000000037 -0.5 1 0 0 0 0 -1 -0 1 0 
1 -3.6000000000000005 -5.0000000000000036 -0.5 0 1 0 0 -0 1 1 0 -0 
1 0 0 -1.2 0 -0 1 1 0 0 -0 1 0 
1 0 0 -1.2 0 -0 1 1 0 0 -0 1 0 
1 0 0 -1.2 -0 0 -1 -1 0 0 0 1 0 
1 0 0 -1.2 -0 0 1 1 0 0 0 1 -0 
1 0 0 -1.2 0 0 1 1 0 -0 -0 1 0 
1 0 0 -1.2 -0 0 -1 -1 0 0 0 1 0 
1 0 0 -1.2 -0 0 -1 -1 0 0 0 1 0 
1 0 0 -0.5 -0 0 -1 -1 0 0 0 1 0 
Triangulations 0

TShapes 487
Ve
1e-07
-8.12 -7.3 1.66
0 0

0101101
*
Ve
1e-07
-8.12 -7.3 -9.18485099360499e-17
0 0

0101101
*
Ed
 1e-07 1 1 0
1  1 0 -1.66 9.18485099360499e-17
2  1 1 0 -1.66 9.18485099360499e-17
2  2 2 0 -1.66 9.18485099360499e-17
4 CN 1 0 2 0
0

0101000
+487 0 -486 0 *
Ve
1e-07
-7.12 -7.3 -9.18485099360499e-17
0 0

0101101
*
Ed
 1e-07 1 1 0
1  2 0 3.14159265358979 6.28318530717959
2  3 1 0 3.14159265358979 6.28318530717959
4 C0 1 0 3 0
0

0101000
+484 0 -486 0 *
Ve
1e-07
-7.12 -7.3 1.66
0 0

0101101
*
Ed
 1e-07 1 1 0
1  3 0 -1.66 9.18485099360499e-17
2  4 1 0 -1.66 9.18485099360499e-17
2  5 2 0 -1.66 9.18485099360499e-17
4 CN 1 0 2 0
0

0101000
+482 0 -484 0 *
Ed
 1e-07 1 1 0
1  4 0 3.14159265358979 6.28318530717959
2  6 1 0 3.14159265358979 6.28318530717959
4 C0 1 0 4 0
0

0101000
+482 0 -487 0 *
Wi

0101100
+485 0 -483 0 -481 0 +480 0 *
Fa
0  1e-07 1 0

0111000
+479 0 *
Ve
1e-07
-5.58 -7.3 1.66
0 0

0101101
*
Ve
1e-07
-5.58 -7.3 -9.18485099360499e-17
0 0

0101101
*
Ed
 1e-07 1 1 0
1  5 0 -1.66 9.18485099360499e-17
2  7 5 0 -1.66 9.18485099360499e-17
2  8 6 0 -1.66 9.18485099360499e-17
4 CN 5 0 6 0
0

0101000
+477 0 -476 0 *
Ve
1e-07
-4.58 -7.3 -9.18485099360499e-17
0 0

0101101
*
Ed
 1e-07 1 1 0
1  6 0 3.14159265358979 6.28318530717959
2  9 5 0 3.14159265358979 6.28318530717959
4 C0 5 0 3 0
0

0101000
+474 0 -476 0 *
Ve
1e-07
-4.58 -7.3 1.66
0 0

0101101
*
Ed
 1e-07 1 1 0
1  7 0 -1.66 9.18485099360499e-17
2  10 5 0 -1.66 9.18485099360499e-17
2  11 6 0 -1.66 9.18485099360499e-17
4 CN 5 0 6 0
0

0101000
+472 0 -474 0 *
Ed
 1e-07 1 1 0
1  8 0 3.14159265358979 6.28318530717959
2  12 5 0 3.14159265358979 6.28318530717959
4 C0 5 0 4 0
0

0101000
+472 0 -477 0 *
Wi

0101100
+475 0 -473 0 -471 0 +470 0 *
Fa
0  1e-07 5 0

0111000
+469 0 *
Ve
1e-07
-3.04 -7.3 1.66
0 0

0101101
*
Ve
1e-07
-3.04 -7.3 -9.18485099360499e-17
0 0

0101101
*
Ed
 1e-07 1 1 0
1  9 0 -1.66 9.18485099360499e-17
2  13 7 0 -1.66 9.18485099360499e-17
2  14 8 0 -1.66 9.18485099360499e-17
4 CN 7 0 8 0
0

0101000
+467 0 -466 0 *
Ve
1e-07
-2.04 -7.3 -9.18485099360499e-17
0 0

0101101
*
Ed
 1e-07 1 1 0
1  10 0 3.14159265358979 6.28318530717959
2  15 7 0 3.14159265358979 6.28318530717959
4 C0 7 0 3 0
0

0101000
+464 0 -466 0 *
Ve
1e-07
-2.04 -7.3 1.66
0 0

0101101
*
Ed
 1e-07 1 1 0
1  11 0 -1.66 9.18485099360499e-17
2  16 7 0 -1.66 9.18485099360499e-17
2  17 8 0 -1.66 9.18485099360499e-17
4 CN 7 0 8 0
0

0101000
+462 0 -464 0 *
Ed
 1e-07 1 1 0
1  12 0 3.14159265358979 6.28318530717959
2  18 7 0 3.14159265358979 6.28318530717959
4 C0 7 0 4 0
0

0101000
+462 0 -467 0 *
Wi

0101100
+465 0 -463 0 -461 0 +460 0 *
Fa
0  1e-07 7 0

0111000
+459 0 *
Ve
1e-07
-0.500000000000001 -7.3 1.66
0 0

0101101
*
Ve
1e-07
-0.500000000000002 -7.3 -9.18485099360499e-17
0 0

0101101
*
Ed
 1e-07 1 1 0
1  13 0 -1.66 9.18485099360499e-17
2  19 9 0 -1.66 9.18485099360499e-17
2  20 10 0 -1.66 9.18485099360499e-17
4 CN 9 0 10 0
0

0101000
+457 0 -456 0 *
Ve
1e-07
0.499999999999998 -7.3 -9.18485099360499e-17
0 0

0101101
*
Ed
 1e-07 1 1 0
1  14 0 3.14159265358979 6.28318530717959
2  21 9 0 3.14159265358979 6.28318530717959
4 C0 9 0 3 0
0

0101000
+454 0 -456 0 *
Ve
1e-07
0.499999999999998 -7.3 1.66
0 0

0101101
*
Ed
 1e-07 1 1 0
1  15 0 -1.66 9.18485099360499e-17
2  22 9 0 -1.66 9.18485099360499e-17
2  23 10 0 -1.66 9.18485099360499e-17
4 CN 9 0 10 0
0

0101000
+452 0 -454 0 *
Ed
 1e-07 1 1 0
1  16 0 3.14159265358979 6.28318530717959
2  24 9 0 3.14159265358979 6.28318530717959
4 C0 9 0 4 0
0

0101000
+452 0 -457 0 *
Wi

0101100
+455 0 -453 0 -451 0 +450 0 *
Fa
0  1e-07 9 0

0111000
+449 0 *
Ve
1e-07
2.04 -7.3 1.66
0 0

0101101
*
Ve
1e-07
2.04 -7.3 -9.18485099360499e-17
0 0

0101101
*
Ed
 1e-07 1 1 0
1  17 0 -1.66 9.18485099360499e-17
2  25 11 0 -1.66 9.18485099360499e-17
2  26 12 0 -1.66 9.18485099360499e-17
4 CN 11 0 12 0
0

0101000
+447 0 -446 0 *
Ve
1e-07
3.04 -7.3 -9.18485099360499e-17
0 0

0101101
*
Ed
 1e-07 1 1 0
1  18 0 3.14159265358979 6.28318530717959
2  27 11 0 3.14159265358979 6.28318530717959
4 C0 11 0 3 0
0

0101000
+444 0 -446 0 *
Ve
1e-07
3.04 -7.3 1.66
0 0

0101101
*
Ed
 1e-07 1 1 0
1  19 0 -1.66 9.18485099360499e-17
2  28 11 0 -1.66 9.18485099360499e-17
2  29 12 0 -1.66 9.18485099360499e-17
4 CN 11 0 12 0
0

0101000
+442 0 -444 0 *
Ed
 1e-07 1 1 0
1  20 0 3.14159265358979 6.28318530717959
2  30 11 0 3.14159265358979 6.28318530717959
4 C0 11 0 4 0
0

0101000
+442 0 -447 0 *
Wi

0101100
+445 0 -443 0 -441 0 +440 0 *
Fa
0  1e-07 11 0

0111000
+439 0 *
Ve
1e-07
4.58 -7.3 1.66
0 0

0101101
*
Ve
1e-07
4.58 -7.3 -9.18485099360499e-17
0 0

0101101
*
Ed
 1e-07 1 1 0
1  21 0 -1.66 9.18485099360499e-17
2  31 13 0 -1.66 9.18485099360499e-17
2  32 14 0 -1.66 9.18485099360499e-17
4 CN 13 0 14 0
0

0101000
+437 0 -436 0 *
Ve
1e-07
5.58 -7.3 -9.18485099360499e-17
0 0

0101101
*
Ed
 1e-07 1 1 0
1  22 0 3.14159265358979 6.28318530717959
2  33 13 0 3.14159265358979 6.28318530717959
4 C0 13 0 3 0
0

0101000
+434 0 -436 0 *
Ve
1e-07
5.58 -7.3 1.66
0 0

0101101
*
Ed
 1e-07 1 1 0
1  23 0 -1.66 9.18485099360499e-17
2  34 13 0 -1.66 9.18485099360499e-17
2  35 14 0 -1.66 9.18485099360499e-17
4 CN 13 0 14 0
0

0101000
+432 0 -434 0 *
Ed
 1e-07 1 1 0
1  24 0 3.14159265358979 6.28318530717959
2  36 13 0 3.14159265358979 6.28318530717959
4 C0 13 0 4 0
0

0101000
+432 0 -437 0 *
Wi

0101100
+435 0 -433 0 -431 0 +430 0 *
Fa
0  1e-07 13 0

0111000
+429 0 *
Ve
1e-07
7.12 -7.3 1.66
0 0

0101101
*
Ve
1e-07
7.12 -7.3 -9.18485099360499e-17
0 0

0101101
*
Ed
 1e-07 1 1 0
1  25 0 -1.66 9.18485099360499e-17
2  37 15 0 -1.66 9.18485099360499e-17
2  38 16 0 -1.66 9.18485099360499e-17
4 CN 15 0 16 0
0

0101000
+427 0 -426 0 *
Ve
1e-07
8.12 -7.3 -9.18485099360499e-17
0 0

0101101
*
Ed
 1e-07 1 1 0
1  26 0 3.14159265358979 6.28318530717959
2  39 15 0 3.14159265358979 6.28318530717959
4 C0 15 0 3 0
0

0101000
+424 0 -426 0 *
Ve
1e-07
8.12 -7.3 1.66
0 0

0101101
*
Ed
 1e-07 1 1 0
1  27 0 -1.66 9.18485099360499e-17
2  40 15 0 -1.66 9.18485099360499e-17
2  41 16 0 -1.66 9.18485099360499e-17
4 CN 15 0 16 0
0

0101000
+422 0 -424 0 *
Ed
 1e-07 1 1 0
1  28 0 3.14159265358979 6.28318530717959
2  42 15 0 3.14159265358979 6.28318530717959
4 C0 15 0 4 0
0

0101000
+422 0 -427 0 *
Wi

0101100
+425 0 -423 0 -421 0 +420 0 *
Fa
0  1e-07 15 0

0111000
+419 0 *
Ve
1e-07
1.25000000000001 6.3 1.66
0 0

0101101
*
Ve
1e-07
1.25 6.3 -9.18485099360507e-17
0 0

0101101
*
Ed
 1e-07 1 1 0
1  29 0 -1.66 9.18485099360507e-17
2  43 17 0 -1.66 9.18485099360507e-17
2  44 18 0 -1.66 9.18485099360507e-17
4 CN 17 0 18 0
0

0101000
+417 0 -416 0 *
Ve
1e-07
2.25 6.3 -9.18485099360507e-17
0 0

0101101
*
Ed
 1e-07 1 1 0
1  30 0 3.14159265358979 6.28318530717959
2  45 17 0 3.14159265358979 6.28318530717959
4 C0 17 0 3 0
0

0101000
+414 0 -416 0 *
Ve
1e-07
2.24999999999999 6.3 1.66
0 0

0101101
*
Ed
 1e-07 1 1 0
1  31 0 -1.66 9.18485099360507e-17
2  46 17 0 -1.66 9.18485099360507e-17
2  47 18 0 -1.66 9.18485099360507e-17
4 CN 17 0 18 0
0

0101000
+412 0 -414 0 *
Ed
 1e-07 1 1 0
1  32 0 3.14159265358979 6.28318530717959
2  48 17 0 3.14159265358979 6.28318530717959
4 C0 17 0 4 0
0

0101000
+417 0 -412 0 *
Wi

0101100
+415 0 -413 0 -411 0 -410 0 *
Fa
0  1e-07 17 0

0111000
+409 0 *
Ve
1e-07
-2.24999999999999 6.3 1.66
0 0

0101101
*
Ve
1e-07
-2.25 6.3 -9.18485099360507e-17
0 0

0101101
*
Ed
 1e-07 1 1 0
1  33 0 -1.66 9.18485099360507e-17
2  49 19 0 -1.66 9.18485099360507e-17
2  50 20 0 -1.66 9.18485099360507e-17
4 CN 19 0 20 0
0

0101000
+407 0 -406 0 *
Ve
1e-07
-1.25 6.3 -9.18485099360507e-17
0 0

0101101
*
Ed
 1e-07 1 1 0
1  34 0 3.14159265358979 6.28318530717959
2  51 19 0 3.14159265358979 6.28318530717959
4 C0 19 0 3 0
0

0101000
+404 0 -406 0 *
Ve
1e-07
-1.25000000000001 6.3 1.66
0 0

0101101
*
Ed
 1e-07 1 1 0
1  35 0 -1.66 9.18485099360507e-17
2  52 19 0 -1.66 9.18485099360507e-17
2  53 20 0 -1.66 9.18485099360507e-17
4 CN 19 0 20 0
0

0101000
+402 0 -404 0 *
Ed
 1e-07 1 1 0
1  36 0 3.14159265358979 6.28318530717959
2  54 19 0 3.14159265358979 6.28318530717959
4 C0 19 0 4 0
0

0101000
+407 0 -402 0 *
Wi

0101100
+405 0 -403 0 -401 0 -400 0 *
Fa
0  1e-07 19 0

0111000
+399 0 *
Ve
1e-07
-5.10000000000001 7.1 -1.73472347597681e-15
0 0

0101101
*
Ve
1e-07
-5.10000000000001 7.1 1.66
0 0

0101101
*
Ed
 1e-07 1 1 0
1  37 0 -1.66 1.33226762955019e-15
2  55 21 0 -1.66 1.33226762955019e-15
2  56 22 0 -1.66 1.33226762955019e-15
4 CN 21 0 22 0
0

0101000
+397 0 -396 0 *
Ve
1e-07
-7.59999999999999 7.1 1.66
0 0

0101101
*
Ed
 1e-07 1 1 0
1  38 0 3.14159265358979 6.28318530717959
2  57 21 0 3.14159265358979 6.28318530717959
4 C0 21 0 4 0
0

0101000
+394 0 -396 0 *
Ve
1e-07
-7.6 7.1 -1.73472347597681e-15
0 0

0101101
*
Ed
 1e-07 1 1 0
1  39 0 -1.66 1.33226762955019e-15
2  58 21 0 -1.66 1.33226762955019e-15
2  59 22 0 -1.66 1.33226762955019e-15
4 CN 21 0 22 0
0

0101000
+392 0 -394 0 *
Ed
 1e-07 1 1 0
1  40 0 3.14159265358979 6.28318530717959
2  60 21 0 3.14159265358979 6.28318530717959
4 C0 21 0 3 0
0

0101000
+392 0 -397 0 *
Wi

0101100
+395 0 -393 0 -391 0 +390 0 *
Fa
0  1e-07 21 0

0111000
+389 0 *
Ve
1e-07
7.6 7.1 -1.73472347597681e-15
0 0

0101101
*
Ve
1e-07
7.59999999999999 7.1 1.66
0 0

0101101
*
Ed
 1e-07 1 1 0
1  41 0 -1.66 1.33226762955019e-15
2  61 23 0 -1.66 1.33226762955019e-15
2  62 24 0 -1.66 1.33226762955019e-15
4 CN 23 0 24 0
0

0101000
+387 0 -386 0 *
Ve
1e-07
5.10000000000001 7.1 1.66
0 0

0101101
*
Ed
 1e-07 1 1 0
1  42 0 3.14159265358979 6.28318530717959
2  63 23 0 3.14159265358979 6.28318530717959
4 C0 23 0 4 0
0

0101000
+384 0 -386 0 *
Ve
1e-07
5.10000000000001 7.1 -1.73472347597681e-15
0 0

0101101
*
Ed
 1e-07 1 1 0
1  43 0 -1.66 1.33226762955019e-15
2  64 23 0 -1.66 1.33226762955019e-15
2  65 24 0 -1.66 1.33226762955019e-15
4 CN 23 0 24 0
0

0101000
+382 0 -384 0 *
Ed
 1e-07 1 1 0
1  44 0 3.14159265358979 6.28318530717959
2  66 23 0 3.14159265358979 6.28318530717959
4 C0 23 0 3 0
0

0101000
+382 0 -387 0 *
Wi

0101100
+385 0 -383 0 -381 0 +380 0 *
Fa
0  1e-07 23 0

0111000
+379 0 *
Ve
1e-07
-5.375 -0.25 0
0 0

0101101
*
Ve
1e-07
-5.375 -2.75 0
0 0

0101101
*
Ed
 1e-07 1 1 0
1  45 0 0 2.5
4 C0 3 0 25 0
0

0101000
+377 0 -376 0 *
Ve
1e-07
-6.625 -0.25 0
0 0

0101101
*
Ed
 1e-07 1 1 0
1  46 0 -1.25 0
4 C0 3 0 26 0
0

0101000
+374 0 -377 0 *
Ve
1e-07
-6.625 -2.75 0
0 0

0101101
*
Ed
 1e-07 1 1 0
1  47 0 -2.5 0
4 C0 3 0 27 0
0

0101000
+372 0 -374 0 *
Ed
 1e-07 1 1 0
1  48 0 0 1.25
4 C0 3 0 28 0
0

0101000
+376 0 -372 0 *
Wi

0101100
-375 0 -373 0 -371 0 -370 0 *
Ve
1e-07
-5.15 0.875 0
0 0

0101101
*
Ve
1e-07
-7.65 0.875 0
0 0

0101101
*
Ed
 1e-07 1 1 0
1  49 0 -2.5 -0
4 C0 3 0 29 0
0

0101000
+368 0 -367 0 *
Ve
1e-07
-5.15 2.125 0
0 0

0101101
*
Ed
 1e-07 1 1 0
1  50 0 -1.25 -0
4 C0 3 0 30 0
0

0101000
+365 0 -368 0 *
Ve
1e-07
-7.65 2.125 0
0 0

0101101
*
Ed
 1e-07 1 1 0
1  51 0 0 2.5
4 C0 3 0 31 0
0

0101000
+363 0 -365 0 *
Ed
 1e-07 1 1 0
1  52 0 0 1.25
4 C0 3 0 32 0
0

0101000
+367 0 -363 0 *
Wi

0101100
-366 0 -364 0 -362 0 -361 0 *
Ve
1e-07
3.95 2.125 0
0 0

0101101
*
Ve
1e-07
3.95 0.875 0
0 0

0101101
*
Ed
 1e-07 1 1 0
1  53 0 0 1.25
4 C0 3 0 33 0
0

0101000
+359 0 -358 0 *
Ve
1e-07
1.45 2.125 0
0 0

0101101
*
Ed
 1e-07 1 1 0
1  54 0 -2.5 0
4 C0 3 0 34 0
0

0101000
+356 0 -359 0 *
Ve
1e-07
1.45 0.875 0
0 0

0101101
*
Ed
 1e-07 1 1 0
1  55 0 -1.25 0
4 C0 3 0 35 0
0

0101000
+354 0 -356 0 *
Ed
 1e-07 1 1 0
1  56 0 0 2.5
4 C0 3 0 36 0
0

0101000
+358 0 -354 0 *
Wi

0101100
-357 0 -355 0 -353 0 -352 0 *
Ve
1e-07
-1.5 -3.5 0
0 0

0101101
*
Ve
1e-07
-1.5 -0.500000000000003 0
0 0

0101101
*
Ed
 1e-07 1 1 0
1  57 0 0 3
4 C0 3 0 37 0
0

0101000
+350 0 -349 0 *
Ve
1e-07
1.5 -3.5 0
0 0

0101101
*
Ed
 1e-07 1 1 0
1  58 0 0 3
4 C0 3 0 38 0
0

0101000
+347 0 -350 0 *
Ve
1e-07
1.5 -0.500000000000003 0
0 0

0101101
*
Ed
 1e-07 1 1 0
1  59 0 -3 -0
4 C0 3 0 39 0
0

0101000
+345 0 -347 0 *
Ed
 1e-07 1 1 0
1  60 0 -3 0
4 C0 3 0 40 0
0

0101000
+349 0 -345 0 *
Wi

0101100
-348 0 -346 0 -344 0 -343 0 *
Ed
 1e-07 1 1 0
1  61 0 0 3.14159265358979
2  67 6 0 0 3.14159265358979
4 C0 3 0 6 0
0

0101000
+476 0 -474 0 *
Wi

0101100
-341 0 -473 0 *
Ed
 1e-07 1 1 0
1  62 0 0 3.14159265358979
2  68 8 0 0 3.14159265358979
4 C0 3 0 8 0
0

0101000
+466 0 -464 0 *
Wi

0101100
-339 0 -463 0 *
Ed
 1e-07 1 1 0
1  63 0 0 3.14159265358979
2  69 12 0 0 3.14159265358979
4 C0 3 0 12 0
0

0101000
+446 0 -444 0 *
Wi

0101100
-337 0 -443 0 *
Ed
 1e-07 1 1 0
1  64 0 0 3.14159265358979
2  70 14 0 0 3.14159265358979
4 C0 3 0 14 0
0

0101000
+436 0 -434 0 *
Wi

0101100
-335 0 -433 0 *
Ed
 1e-07 1 1 0
1  65 0 0 3.14159265358979
2  71 16 0 0 3.14159265358979
4 C0 3 0 16 0
0

0101000
+426 0 -424 0 *
Wi

0101100
-333 0 -423 0 *
Ed
 1e-07 1 1 0
1  66 0 0 3.14159265358979
2  72 18 0 0 3.14159265358979
4 C0 3 0 18 0
0

0101000
+416 0 -414 0 *
Wi

0101100
-331 0 -413 0 *
Ed
 1e-07 1 1 0
1  67 0 0 3.14159265358979
2  73 20 0 0 3.14159265358979
4 C0 3 0 20 0
0

0101000
+406 0 -404 0 *
Wi

0101100
-329 0 -403 0 *
Ed
 1e-07 1 1 0
1  68 0 0 3.14159265358979
2  74 22 0 0 3.14159265358979
4 C0 3 0 22 0
0

0101000
+397 0 -392 0 *
Wi

0101100
+327 0 +390 0 *
Ed
 1e-07 1 1 0
1  69 0 0 3.14159265358979
2  75 24 0 0 3.14159265358979
4 C0 3 0 24 0
0

0101000
+387 0 -382 0 *
Wi

0101100
+325 0 +380 0 *
Ve
1e-07
6.2 9.8 0
0 0

0101101
*
Ve
1e-07
-6.2 9.8 0
0 0

0101101
*
Ed
 1e-07 1 1 0
1  70 0 2.7 15.1
4 C0 3 0 41 0
0

0101000
+323 0 -322 0 *
Ve
1e-07
8.9 7.1 0
0 0

0101101
*
Ed
 1e-07 1 1 0
1  71 0 4.71238898038469 6.28318530717959
2  76 42 0 4.71238898038469 6.28318530717959
4 C0 3 0 42 0
0

0101000
+323 0 -320 0 *
Ve
1e-07
8.9 -7.1 0
0 0

0101101
*
Ed
 1e-07 1 1 0
1  72 0 2.7 16.9
4 C0 3 0 43 0
0

0101000
+318 0 -320 0 *
Ve
1e-07
6.2 -9.8 0
0 0

0101101
*
Ed
 1e-07 1 1 0
1  73 0 0 1.5707963267949
2  77 44 0 0 1.5707963267949
4 C0 3 0 44 0
0

0101000
+318 0 -316 0 *
Ve
1e-07
-6.2 -9.8 0
0 0

0101101
*
Ed
 1e-07 1 1 0
1  74 0 -15.1 -2.7
4 C0 3 0 45 0
0

0101000
+314 0 -316 0 *
Ve
1e-07
-8.9 -7.1 0
0 0

0101101
*
Ed
 1e-07 1 1 0
1  75 0 1.5707963267949 3.14159265358979
2  78 46 0 1.5707963267949 3.14159265358979
4 C0 3 0 46 0
0

0101000
+314 0 -312 0 *
Ve
1e-07
-8.9 7.1 0
0 0

0101101
*
Ed
 1e-07 1 1 0
1  76 0 -16.9 -2.7
4 C0 3 0 47 0
0

0101000
+310 0 -312 0 *
Ed
 1e-07 1 1 0
1  77 0 3.14159265358979 4.71238898038469
2  79 48 0 3.14159265358979 4.71238898038469
4 C0 3 0 48 0
0

0101000
+310 0 -322 0 *
Wi

0101100
-321 0 +319 0 -317 0 +315 0 -313 0 +311 0 -309 0 +308 0 *
Ed
 1e-07 1 1 0
1  78 0 0 3.14159265358979
2  80 10 0 0 3.14159265358979
4 C0 3 0 10 0
0

0101000
+456 0 -454 0 *
Wi

0101100
-306 0 -453 0 *
Ed
 1e-07 1 1 0
1  79 0 0 3.14159265358979
2  81 2 0 0 3.14159265358979
4 C0 3 0 2 0
0

0101000
+486 0 -484 0 *
Wi

0101100
-304 0 -483 0 *
Ve
1e-07
5.15 0.875 0
0 0

0101101
*
Ve
1e-07
5.15 2.125 0
0 0

0101101
*
Ed
 1e-07 1 1 0
1  80 0 0 1.25
4 C0 3 0 49 0
0

0101000
+302 0 -301 0 *
Ve
1e-07
7.65 0.875 0
0 0

0101101
*
Ed
 1e-07 1 1 0
1  81 0 0 2.5
4 C0 3 0 50 0
0

0101000
+299 0 -302 0 *
Ve
1e-07
7.65 2.125 0
0 0

0101101
*
Ed
 1e-07 1 1 0
1  82 0 -1.25 -0
4 C0 3 0 51 0
0

0101000
+297 0 -299 0 *
Ed
 1e-07 1 1 0
1  83 0 -2.5 0
4 C0 3 0 52 0
0

0101000
+301 0 -297 0 *
Wi

0101100
-300 0 -298 0 -296 0 -295 0 *
Ve
1e-07
-3.95 0.875 0
0 0

0101101
*
Ve
1e-07
-3.95 2.125 0
0 0

0101101
*
Ed
 1e-07 1 1 0
1  84 0 -1.25 0
4 C0 3 0 53 0
0

0101000
+293 0 -292 0 *
Ve
1e-07
-1.45 0.875 0
0 0

0101101
*
Ed
 1e-07 1 1 0
1  85 0 -2.5 -0
4 C0 3 0 54 0
0

0101000
+290 0 -293 0 *
Ve
1e-07
-1.45 2.125 0
0 0

0101101
*
Ed
 1e-07 1 1 0
1  86 0 0 1.25
4 C0 3 0 55 0
0

0101000
+288 0 -290 0 *
Ed
 1e-07 1 1 0
1  87 0 0 2.5
4 C0 3 0 56 0
0

0101000
+292 0 -288 0 *
Wi

0101100
-291 0 -289 0 -287 0 -286 0 *
Ve
1e-07
-3.175 -0.25 0
0 0

0101101
*
Ve
1e-07
-3.175 -2.75 0
0 0

0101101
*
Ed
 1e-07 1 1 0
1  88 0 0 2.5
4 C0 3 0 57 0
0

0101000
+284 0 -283 0 *
Ve
1e-07
-4.425 -0.25 0
0 0

0101101
*
Ed
 1e-07 1 1 0
1  89 0 -1.25 0
4 C0 3 0 58 0
0

0101000
+281 0 -284 0 *
Ve
1e-07
-4.425 -2.75 0
0 0

0101101
*
Ed
 1e-07 1 1 0
1  90 0 -2.5 0
4 C0 3 0 59 0
0

0101000
+279 0 -281 0 *
Ed
 1e-07 1 1 0
1  91 0 0 1.25
4 C0 3 0 60 0
0

0101000
+283 0 -279 0 *
Wi

0101100
-282 0 -280 0 -278 0 -277 0 *
Ve
1e-07
-3.6 -3.7 0
0 0

0101101
*
Ve
1e-07
-3.6 -5 0
0 0

0101101
*
Ed
 1e-07 1 1 0
1  92 0 0 1.3
4 C0 3 0 61 0
0

0101000
+275 0 -274 0 *
Ve
1e-07
-6 -3.7 0
0 0

0101101
*
Ed
 1e-07 1 1 0
1  93 0 -2.4 0
4 C0 3 0 62 0
0

0101000
+272 0 -275 0 *
Ve
1e-07
-6 -5 0
0 0

0101101
*
Ed
 1e-07 1 1 0
1  94 0 -1.3 0
4 C0 3 0 63 0
0

0101000
+270 0 -272 0 *
Ed
 1e-07 1 1 0
1  95 0 0 2.4
4 C0 3 0 64 0
0

0101000
+274 0 -270 0 *
Wi

0101100
-273 0 -271 0 -269 0 -268 0 *
Fa
0  1e-07 3 0

0111000
-369 0 -360 0 -351 0 -342 0 -340 0 -338 0 -336 0 -334 0 -332 0 -330 0 
-328 0 -326 0 -324 0 -307 0 -305 0 -303 0 -294 0 -285 0 -276 0 -267 0 
*
Ve
1e-07
-8.9 -7.1 1.66
0 0

0101101
*
Ed
 1e-07 1 1 0
1  96 0 -1.66 0
2  82 46 0 -1.66 0
4 G1 47 0 46 0
0

0101000
+312 0 -265 0 *
Ve
1e-07
-8.9 7.1 1.66
0 0

0101101
*
Ed
 1e-07 1 1 0
1  97 0 -16.9 -2.7
4 C0 47 0 4 0
0

0101000
+263 0 -265 0 *
Ed
 1e-07 1 1 0
1  98 0 0 1.66
2  83 48 0 0 1.66
4 G1 47 0 48 0
0

0101000
+263 0 -310 0 *
Wi

0101100
+309 0 +264 0 -262 0 +261 0 *
Fa
0  1e-07 47 0

0111000
-260 0 *
Ve
1e-07
6.2 -9.8 1.66
0 0

0101101
*
Ed
 1e-07 1 1 0
1  99 0 -1.66 0
2  84 44 0 -1.66 0
4 G1 45 0 44 0
0

0101000
+316 0 -258 0 *
Ve
1e-07
-6.2 -9.8 1.66
0 0

0101101
*
Ed
 1e-07 1 1 0
1  100 0 -15.1 -2.7
4 C0 45 0 4 0
0

0101000
+256 0 -258 0 *
Ed
 1e-07 1 1 0
1  101 0 0 1.66
2  85 46 0 0 1.66
4 G1 45 0 46 0
0

0101000
+256 0 -314 0 *
Wi

0101100
+313 0 +257 0 -255 0 +254 0 *
Fa
0  1e-07 45 0

0111000
-253 0 *
Ve
1e-07
8.9 7.1 1.66
0 0

0101101
*
Ed
 1e-07 1 1 0
1  102 0 -1.66 0
2  86 42 0 -1.66 0
4 G1 43 0 42 0
0

0101000
+320 0 -251 0 *
Ve
1e-07
8.9 -7.1 1.66
0 0

0101101
*
Ed
 1e-07 1 1 0
1  103 0 2.7 16.9
4 C0 43 0 4 0
0

0101000
+249 0 -251 0 *
Ed
 1e-07 1 1 0
1  104 0 0 1.66
2  87 44 0 0 1.66
4 G1 43 0 44 0
0

0101000
+249 0 -318 0 *
Wi

0101100
+317 0 +250 0 -248 0 +247 0 *
Fa
0  1e-07 43 0

0111000
-246 0 *
Ve
1e-07
6.2 9.8 1.66
0 0

0101101
*
Ve
1e-07
-6.2 9.8 1.66
0 0

0101101
*
Ed
 1e-07 1 1 0
1  105 0 2.7 15.1
4 C0 41 0 4 0
0

0101000
+244 0 -243 0 *
Ed
 1e-07 1 1 0
1  106 0 0 1.66
2  88 42 0 0 1.66
4 G1 41 0 42 0
0

0101000
+244 0 -323 0 *
Ed
 1e-07 1 1 0
1  107 0 -1.66 0
2  89 48 0 -1.66 0
4 G1 41 0 48 0
0

0101000
+322 0 -243 0 *
Wi

0101100
-242 0 +241 0 +321 0 +240 0 *
Fa
0  1e-07 41 0

0111000
-239 0 *
Ed
 1e-07 1 1 0
1  108 0 0 3.14159265358979
2  90 2 0 0 3.14159265358979
4 C0 4 0 2 0
0

0101000
+487 0 -482 0 *
Wi

0101100
+237 0 +480 0 *
Ed
 1e-07 1 1 0
1  109 0 0 3.14159265358979
2  91 6 0 0 3.14159265358979
4 C0 4 0 6 0
0

0101000
+477 0 -472 0 *
Wi

0101100
+235 0 +470 0 *
Ed
 1e-07 1 1 0
1  110 0 0 3.14159265358979
2  92 8 0 0 3.14159265358979
4 C0 4 0 8 0
0

0101000
+467 0 -462 0 *
Wi

0101100
+233 0 +460 0 *
Ed
 1e-07 1 1 0
1  111 0 0 3.14159265358979
2  93 10 0 0 3.14159265358979
4 C0 4 0 10 0
0

0101000
+457 0 -452 0 *
Wi

0101100
+231 0 +450 0 *
Ed
 1e-07 1 1 0
1  112 0 0 3.14159265358979
2  94 12 0 0 3.14159265358979
4 C0 4 0 12 0
0

0101000
+447 0 -442 0 *
Wi

0101100
+229 0 +440 0 *
Ed
 1e-07 1 1 0
1  113 0 0 3.14159265358979
2  95 14 0 0 3.14159265358979
4 C0 4 0 14 0
0

0101000
+437 0 -432 0 *
Wi

0101100
+227 0 +430 0 *
Ed
 1e-07 1 1 0
1  114 0 0 3.14159265358979
2  96 16 0 0 3.14159265358979
4 C0 4 0 16 0
0

0101000
+427 0 -422 0 *
Wi

0101100
+225 0 +420 0 *
Ed
 1e-07 1 1 0
1  115 0 0 3.14159265358979
2  97 18 0 0 3.14159265358979
4 C0 4 0 18 0
0

0101000
+412 0 -417 0 *
Wi

0101100
-410 0 -223 0 *
Ed
 1e-07 1 1 0
1  116 0 0 3.14159265358979
2  98 20 0 0 3.14159265358979
4 C0 4 0 20 0
0

0101000
+402 0 -407 0 *
Wi

0101100
-400 0 -221 0 *
Ed
 1e-07 1 1 0
1  117 0 0 3.14159265358979
2  99 22 0 0 3.14159265358979
4 C0 4 0 22 0
0

0101000
+396 0 -394 0 *
Wi

0101100
-219 0 -393 0 *
Ed
 1e-07 1 1 0
1  118 0 0 3.14159265358979
2  100 24 0 0 3.14159265358979
4 C0 4 0 24 0
0

0101000
+386 0 -384 0 *
Wi

0101100
-217 0 -383 0 *
Ed
 1e-07 1 1 0
1  119 0 0 1.5707963267949
2  101 42 0 0 1.5707963267949
4 C0 4 0 42 0
0

0101000
+251 0 -244 0 *
Ed
 1e-07 1 1 0
1  120 0 1.5707963267949 3.14159265358979
2  102 48 0 1.5707963267949 3.14159265358979
4 C0 4 0 48 0
0

0101000
+243 0 -263 0 *
Ed
 1e-07 1 1 0
1  121 0 3.14159265358979 4.71238898038469
2  103 46 0 3.14159265358979 4.71238898038469
4 C0 4 0 46 0
0

0101000
+265 0 -256 0 *
Ed
 1e-07 1 1 0
1  122 0 4.71238898038469 6.28318530717959
2  104 44 0 4.71238898038469 6.28318530717959
4 C0 4 0 44 0
0

0101000
+258 0 -249 0 *
Wi

0101100
+248 0 +215 0 +242 0 +214 0 +262 0 +213 0 +255 0 +212 0 *
Fa
0  1e-07 4 0

0111000
+236 0 +234 0 +232 0 +230 0 +228 0 +226 0 +224 0 +222 0 +220 0 +218 0 
+216 0 +211 0 *
Wi

0101100
-215 0 -250 0 -319 0 -241 0 *
Fa
0  1e-07 42 0

0111000
+209 0 *
Wi

0101100
-212 0 -257 0 -315 0 -247 0 *
Fa
0  1e-07 44 0

0111000
+207 0 *
Wi

0101100
-213 0 -264 0 -311 0 -254 0 *
Fa
0  1e-07 46 0

0111000
+205 0 *
Wi

0101100
-214 0 -240 0 -308 0 -261 0 *
Fa
0  1e-07 48 0

0111000
+203 0 *
Wi

0101100
-217 0 -385 0 +325 0 +381 0 *
Fa
0  1e-07 24 0

0111000
+201 0 *
Wi

0101100
-219 0 -395 0 +327 0 +391 0 *
Fa
0  1e-07 22 0

0111000
+199 0 *
Wi

0101100
-329 0 -405 0 -221 0 +401 0 *
Fa
0  1e-07 20 0

0111000
+197 0 *
Wi

0101100
-331 0 -415 0 -223 0 +411 0 *
Fa
0  1e-07 18 0

0111000
+195 0 *
Wi

0101100
-333 0 -425 0 +225 0 +421 0 *
Fa
0  1e-07 16 0

0111000
+193 0 *
Wi

0101100
-335 0 -435 0 +227 0 +431 0 *
Fa
0  1e-07 14 0

0111000
+191 0 *
Wi

0101100
-337 0 -445 0 +229 0 +441 0 *
Fa
0  1e-07 12 0

0111000
+189 0 *
Wi

0101100
-306 0 -455 0 +231 0 +451 0 *
Fa
0  1e-07 10 0

0111000
+187 0 *
Wi

0101100
-339 0 -465 0 +233 0 +461 0 *
Fa
0  1e-07 8 0

0111000
+185 0 *
Wi

0101100
-341 0 -475 0 +235 0 +471 0 *
Fa
0  1e-07 6 0

0111000
+183 0 *
Wi

0101100
-304 0 -485 0 +237 0 +481 0 *
Fa
0  1e-07 2 0

0111000
+181 0 *
Ve
1e-07
-1.5 -0.500000000000003 -1.2
0 0

0101101
*
Ed
 1e-07 1 1 0
1  123 0 0 1.2
4 C0 37 0 40 0
0

0101000
+179 0 -349 0 *
Ve
1e-07
-1.5 -3.5 -1.2
0 0

0101101
*
Ed
 1e-07 1 1 0
1  124 0 0 3
4 C0 37 0 65 0
0

0101000
+177 0 -179 0 *
Ed
 1e-07 1 1 0
1  125 0 0 1.2
4 C0 37 0 38 0
0

0101000
+177 0 -350 0 *
Wi

0101100
+348 0 -178 0 -176 0 +175 0 *
Fa
0  1e-07 37 0

0111000
-174 0 *
Ve
1e-07
1.5 -0.500000000000003 -1.2
0 0

0101101
*
Ed
 1e-07 1 1 0
1  126 0 0 1.2
4 C0 40 0 39 0
0

0101000
+172 0 -345 0 *
Ed
 1e-07 1 1 0
1  127 0 -3 0
4 C0 40 0 65 0
0

0101000
+179 0 -172 0 *
Wi

0101100
+343 0 -171 0 -170 0 +178 0 *
Fa
0  1e-07 40 0

0111000
-169 0 *
Ve
1e-07
1.5 -3.5 -1.2
0 0

0101101
*
Ed
 1e-07 1 1 0
1  128 0 0 1.2
4 C0 39 0 38 0
0

0101000
+167 0 -347 0 *
Ed
 1e-07 1 1 0
1  129 0 -3 -0
4 C0 39 0 65 0
0

0101000
+172 0 -167 0 *
Wi

0101100
+344 0 -166 0 -165 0 +171 0 *
Fa
0  1e-07 39 0

0111000
-164 0 *
Ed
 1e-07 1 1 0
1  130 0 0 3
4 C0 38 0 65 0
0

0101000
+167 0 -177 0 *
Wi

0101100
+346 0 -175 0 -162 0 +166 0 *
Fa
0  1e-07 38 0

0111000
-161 0 *
Wi

0101100
+176 0 +170 0 +165 0 +162 0 *
Fa
0  1e-07 65 0

0111000
-159 0 *
Ve
1e-07
5.15 2.125 -1.2
0 0

0101101
*
Ed
 1e-07 1 1 0
1  131 0 0 1.2
4 C0 49 0 52 0
0

0101000
+157 0 -301 0 *
Ve
1e-07
5.15 0.875 -1.2
0 0

0101101
*
Ed
 1e-07 1 1 0
1  132 0 0 1.25
4 C0 49 0 66 0
0

0101000
+155 0 -157 0 *
Ed
 1e-07 1 1 0
1  133 0 0 1.2
4 C0 49 0 50 0
0

0101000
+155 0 -302 0 *
Wi

0101100
+300 0 -156 0 -154 0 +153 0 *
Fa
0  1e-07 49 0

0111000
-152 0 *
Ve
1e-07
7.65 2.125 -1.2
0 0

0101101
*
Ed
 1e-07 1 1 0
1  134 0 0 1.2
4 C0 52 0 51 0
0

0101000
+150 0 -297 0 *
Ed
 1e-07 1 1 0
1  135 0 -2.5 0
4 C0 52 0 66 0
0

0101000
+157 0 -150 0 *
Wi

0101100
+295 0 -149 0 -148 0 +156 0 *
Fa
0  1e-07 52 0

0111000
-147 0 *
Ve
1e-07
7.65 0.875 -1.2
0 0

0101101
*
Ed
 1e-07 1 1 0
1  136 0 0 1.2
4 C0 51 0 50 0
0

0101000
+145 0 -299 0 *
Ed
 1e-07 1 1 0
1  137 0 -1.25 -0
4 C0 51 0 66 0
0

0101000
+150 0 -145 0 *
Wi

0101100
+296 0 -144 0 -143 0 +149 0 *
Fa
0  1e-07 51 0

0111000
-142 0 *
Ed
 1e-07 1 1 0
1  138 0 0 2.5
4 C0 50 0 66 0
0

0101000
+145 0 -155 0 *
Wi

0101100
+298 0 -153 0 -140 0 +144 0 *
Fa
0  1e-07 50 0

0111000
-139 0 *
Wi

0101100
+154 0 +148 0 +143 0 +140 0 *
Fa
0  1e-07 66 0

0111000
-137 0 *
Ve
1e-07
3.95 0.875 -1.2
0 0

0101101
*
Ed
 1e-07 1 1 0
1  139 0 0 1.2
4 C0 33 0 36 0
0

0101000
+135 0 -358 0 *
Ve
1e-07
3.95 2.125 -1.2
0 0

0101101
*
Ed
 1e-07 1 1 0
1  140 0 0 1.25
4 C0 33 0 67 0
0

0101000
+133 0 -135 0 *
Ed
 1e-07 1 1 0
1  141 0 0 1.2
4 C0 33 0 34 0
0

0101000
+133 0 -359 0 *
Wi

0101100
+357 0 -134 0 -132 0 +131 0 *
Fa
0  1e-07 33 0

0111000
-130 0 *
Ve
1e-07
1.45 0.875 -1.2
0 0

0101101
*
Ed
 1e-07 1 1 0
1  142 0 0 1.2
4 C0 36 0 35 0
0

0101000
+128 0 -354 0 *
Ed
 1e-07 1 1 0
1  143 0 0 2.5
4 C0 36 0 67 0
0

0101000
+135 0 -128 0 *
Wi

0101100
+352 0 -127 0 -126 0 +134 0 *
Fa
0  1e-07 36 0

0111000
-125 0 *
Ve
1e-07
1.45 2.125 -1.2
0 0

0101101
*
Ed
 1e-07 1 1 0
1  144 0 0 1.2
4 C0 35 0 34 0
0

0101000
+123 0 -356 0 *
Ed
 1e-07 1 1 0
1  145 0 -1.25 0
4 C0 35 0 67 0
0

0101000
+128 0 -123 0 *
Wi

0101100
+353 0 -122 0 -121 0 +127 0 *
Fa
0  1e-07 35 0

0111000
-120 0 *
Ed
 1e-07 1 1 0
1  146 0 -2.5 0
4 C0 34 0 67 0
0

0101000
+123 0 -133 0 *
Wi

0101100
+355 0 -131 0 -118 0 +122 0 *
Fa
0  1e-07 34 0

0111000
-117 0 *
Wi

0101100
+132 0 +126 0 +121 0 +118 0 *
Fa
0  1e-07 67 0

0111000
+115 0 *
Ve
1e-07
-3.95 2.125 -1.2
0 0

0101101
*
Ed
 1e-07 1 1 0
1  147 0 0 1.2
4 C0 53 0 56 0
0

0101000
+113 0 -292 0 *
Ve
1e-07
-3.95 0.875 -1.2
0 0

0101101
*
Ed
 1e-07 1 1 0
1  148 0 -1.25 0
4 C0 53 0 68 0
0

0101000
+111 0 -113 0 *
Ed
 1e-07 1 1 0
1  149 0 0 1.2
4 C0 53 0 54 0
0

0101000
+111 0 -293 0 *
Wi

0101100
+291 0 -112 0 -110 0 +109 0 *
Fa
0  1e-07 53 0

0111000
-108 0 *
Ve
1e-07
-1.45 2.125 -1.2
0 0

0101101
*
Ed
 1e-07 1 1 0
1  150 0 0 1.2
4 C0 56 0 55 0
0

0101000
+106 0 -288 0 *
Ed
 1e-07 1 1 0
1  151 0 0 2.5
4 C0 56 0 68 0
0

0101000
+113 0 -106 0 *
Wi

0101100
+286 0 -105 0 -104 0 +112 0 *
Fa
0  1e-07 56 0

0111000
-103 0 *
Ve
1e-07
-1.45 0.875 -1.2
0 0

0101101
*
Ed
 1e-07 1 1 0
1  152 0 0 1.2
4 C0 55 0 54 0
0

0101000
+101 0 -290 0 *
Ed
 1e-07 1 1 0
1  153 0 0 1.25
4 C0 55 0 68 0
0

0101000
+106 0 -101 0 *
Wi

0101100
+287 0 -100 0 -99 0 +105 0 *
Fa
0  1e-07 55 0

0111000
-98 0 *
Ed
 1e-07 1 1 0
1  154 0 -2.5 -0
4 C0 54 0 68 0
0

0101000
+101 0 -111 0 *
Wi

0101100
+289 0 -109 0 -96 0 +100 0 *
Fa
0  1e-07 54 0

0111000
-95 0 *
Wi

0101100
+110 0 +104 0 +99 0 +96 0 *
Fa
0  1e-07 68 0

0111000
-93 0 *
Ve
1e-07
-7.65 0.875 -1.2
0 0

0101101
*
Ed
 1e-07 1 1 0
1  155 0 0 1.2
4 C0 29 0 32 0
0

0101000
+91 0 -367 0 *
Ve
1e-07
-5.15 0.875 -1.2
0 0

0101101
*
Ed
 1e-07 1 1 0
1  156 0 -2.5 -0
4 C0 29 0 69 0
0

0101000
+89 0 -91 0 *
Ed
 1e-07 1 1 0
1  157 0 0 1.2
4 C0 29 0 30 0
0

0101000
+89 0 -368 0 *
Wi

0101100
+366 0 -90 0 -88 0 +87 0 *
Fa
0  1e-07 29 0

0111000
-86 0 *
Ve
1e-07
-7.65 2.125 -1.2
0 0

0101101
*
Ed
 1e-07 1 1 0
1  158 0 0 1.2
4 C0 32 0 31 0
0

0101000
+84 0 -363 0 *
Ed
 1e-07 1 1 0
1  159 0 0 1.25
4 C0 32 0 69 0
0

0101000
+91 0 -84 0 *
Wi

0101100
+361 0 -83 0 -82 0 +90 0 *
Fa
0  1e-07 32 0

0111000
-81 0 *
Ve
1e-07
-5.15 2.125 -1.2
0 0

0101101
*
Ed
 1e-07 1 1 0
1  160 0 0 1.2
4 C0 31 0 30 0
0

0101000
+79 0 -365 0 *
Ed
 1e-07 1 1 0
1  161 0 0 2.5
4 C0 31 0 69 0
0

0101000
+84 0 -79 0 *
Wi

0101100
+362 0 -78 0 -77 0 +83 0 *
Fa
0  1e-07 31 0

0111000
-76 0 *
Ed
 1e-07 1 1 0
1  162 0 -1.25 -0
4 C0 30 0 69 0
0

0101000
+79 0 -89 0 *
Wi

0101100
+364 0 -87 0 -74 0 +78 0 *
Fa
0  1e-07 30 0

0111000
-73 0 *
Wi

0101100
+88 0 +82 0 +77 0 +74 0 *
Fa
0  1e-07 69 0

0111000
-71 0 *
Ve
1e-07
-3.175 -2.75 -1.2
0 0

0101101
*
Ed
 1e-07 1 1 0
1  163 0 0 1.2
4 C0 57 0 60 0
0

0101000
+69 0 -283 0 *
Ve
1e-07
-3.175 -0.25 -1.2
0 0

0101101
*
Ed
 1e-07 1 1 0
1  164 0 0 2.5
4 C0 57 0 70 0
0

0101000
+67 0 -69 0 *
Ed
 1e-07 1 1 0
1  165 0 0 1.2
4 C0 57 0 58 0
0

0101000
+67 0 -284 0 *
Wi

0101100
+282 0 -68 0 -66 0 +65 0 *
Fa
0  1e-07 57 0

0111000
-64 0 *
Ve
1e-07
-4.425 -2.75 -1.2
0 0

0101101
*
Ed
 1e-07 1 1 0
1  166 0 0 1.2
4 C0 60 0 59 0
0

0101000
+62 0 -279 0 *
Ed
 1e-07 1 1 0
1  167 0 0 1.25
4 C0 60 0 70 0
0

0101000
+69 0 -62 0 *
Wi

0101100
+277 0 -61 0 -60 0 +68 0 *
Fa
0  1e-07 60 0

0111000
-59 0 *
Ve
1e-07
-4.425 -0.25 -1.2
0 0

0101101
*
Ed
 1e-07 1 1 0
1  168 0 0 1.2
4 C0 59 0 58 0
0

0101000
+57 0 -281 0 *
Ed
 1e-07 1 1 0
1  169 0 -2.5 0
4 C0 59 0 70 0
0

0101000
+62 0 -57 0 *
Wi

0101100
+278 0 -56 0 -55 0 +61 0 *
Fa
0  1e-07 59 0

0111000
-54 0 *
Ed
 1e-07 1 1 0
1  170 0 -1.25 0
4 C0 58 0 70 0
0

0101000
+57 0 -67 0 *
Wi

0101100
+280 0 -65 0 -52 0 +56 0 *
Fa
0  1e-07 58 0

0111000
-51 0 *
Wi

0101100
+66 0 +60 0 +55 0 +52 0 *
Fa
0  1e-07 70 0

0111000
+49 0 *
Ve
1e-07
-5.375 -2.75 -1.2
0 0

0101101
*
Ed
 1e-07 1 1 0
1  171 0 0 1.2
4 C0 25 0 28 0
0

0101000
+47 0 -376 0 *
Ve
1e-07
-5.375 -0.25 -1.2
0 0

0101101
*
Ed
 1e-07 1 1 0
1  172 0 0 2.5
4 C0 25 0 71 0
0

0101000
+45 0 -47 0 *
Ed
 1e-07 1 1 0
1  173 0 0 1.2
4 C0 25 0 26 0
0

0101000
+45 0 -377 0 *
Wi

0101100
+375 0 -46 0 -44 0 +43 0 *
Fa
0  1e-07 25 0

0111000
-42 0 *
Ve
1e-07
-6.625 -2.75 -1.2
0 0

0101101
*
Ed
 1e-07 1 1 0
1  174 0 0 1.2
4 C0 28 0 27 0
0

0101000
+40 0 -372 0 *
Ed
 1e-07 1 1 0
1  175 0 0 1.25
4 C0 28 0 71 0
0

0101000
+47 0 -40 0 *
Wi

0101100
+370 0 -39 0 -38 0 +46 0 *
Fa
0  1e-07 28 0

0111000
-37 0 *
Ve
1e-07
-6.625 -0.25 -1.2
0 0

0101101
*
Ed
 1e-07 1 1 0
1  176 0 0 1.2
4 C0 27 0 26 0
0

0101000
+35 0 -374 0 *
Ed
 1e-07 1 1 0
1  177 0 -2.5 0
4 C0 27 0 71 0
0

0101000
+40 0 -35 0 *
Wi

0101100
+371 0 -34 0 -33 0 +39 0 *
Fa
0  1e-07 27 0

0111000
-32 0 *
Ed
 1e-07 1 1 0
1  178 0 -1.25 0
4 C0 26 0 71 0
0

0101000
+35 0 -45 0 *
Wi

0101100
+373 0 -43 0 -30 0 +34 0 *
Fa
0  1e-07 26 0

0111000
-29 0 *
Wi

0101100
+44 0 +38 0 +33 0 +30 0 *
Fa
0  1e-07 71 0

0111000
+27 0 *
Ve
1e-07
-3.6 -5 -0.5
0 0

0101101
*
Ed
 1e-07 1 1 0
1  179 0 0 0.5
4 C0 61 0 64 0
0

0101000
+25 0 -274 0 *
Ve
1e-07
-3.6 -3.7 -0.5
0 0

0101101
*
Ed
 1e-07 1 1 0
1  180 0 0 1.3
4 C0 61 0 72 0
0

0101000
+23 0 -25 0 *
Ed
 1e-07 1 1 0
1  181 0 0 0.5
4 C0 61 0 62 0
0

0101000
+23 0 -275 0 *
Wi

0101100
+273 0 -24 0 -22 0 +21 0 *
Fa
0  1e-07 61 0

0111000
-20 0 *
Ve
1e-07
-6 -5 -0.5
0 0

0101101
*
Ed
 1e-07 1 1 0
1  182 0 0 0.5
4 C0 64 0 63 0
0

0101000
+18 0 -270 0 *
Ed
 1e-07 1 1 0
1  183 0 0 2.4
4 C0 64 0 72 0
0

0101000
+25 0 -18 0 *
Wi

0101100
+268 0 -17 0 -16 0 +24 0 *
Fa
0  1e-07 64 0

0111000
-15 0 *
Ve
1e-07
-6 -3.7 -0.5
0 0

0101101
*
Ed
 1e-07 1 1 0
1  184 0 0 0.5
4 C0 63 0 62 0
0

0101000
+13 0 -272 0 *
Ed
 1e-07 1 1 0
1  185 0 -1.3 0
4 C0 63 0 72 0
0

0101000
+18 0 -13 0 *
Wi

0101100
+269 0 -12 0 -11 0 +17 0 *
Fa
0  1e-07 63 0

0111000
-10 0 *
Ed
 1e-07 1 1 0
1  186 0 -2.4 0
4 C0 62 0 72 0
0

0101000
+13 0 -23 0 *
Wi

0101100
+271 0 -21 0 -8 0 +12 0 *
Fa
0  1e-07 62 0

0111000
-7 0 *
Wi

0101100
+22 0 +16 0 +11 0 +8 0 *
Fa
0  1e-07 72 0

0111000
+5 0 *
Sh

0101100
-478 0 -468 0 -458 0 -448 0 -438 0 -428 0 -418 0 -408 0 -398 0 -388 0 
-378 0 -266 0 -259 0 -252 0 -245 0 -238 0 +210 0 +208 0 +206 0 +204 0 
+202 0 -200 0 -198 0 -196 0 -194 0 -192 0 -190 0 -188 0 -186 0 -184 0 
-182 0 -180 0 -173 0 -168 0 -163 0 -160 0 -158 0 -151 0 -146 0 -141 0 
-138 0 -136 0 -129 0 -124 0 -119 0 -116 0 +114 0 -107 0 -102 0 -97 0 
-94 0 -92 0 -85 0 -80 0 -75 0 -72 0 -70 0 -63 0 -58 0 -53 0 
-50 0 +48 0 -41 0 -36 0 -31 0 -28 0 +26 0 -19 0 -14 0 -9 0 
-6 0 +4 0 *
So

0100000
+3 0 *
Co

1100000
+2 1 *

+1 0 