DBRep_DrawableShape

CASCADE Topology V1, (c) Matra-Datavision
Locations 7
1
              1               0               0               0 
              0               1               0               0 
              0               0               1               0 
1
              1               0               0               0 
              0               1               0               0 
              0               0               1               0 
1
              1               0               0               0 
              0               1               0               0 
              0               0               1               0 
2  2 1 3 1 0
1
              1               0               0               0 
              0               1               0               0 
              0               0               1               0 
1
              1               0               0               0 
              0               1               0               0 
              0               0               1               0 
2  5 1 6 1 0
Curve2ds 16
1 6.2831853071795862 0 -1 0 
1 6.2831853071795862 0 -1 0 
1 6.2831853071795862 0 -1 0 
1 6.2831853071795845 0 -1 0 
1 0 2.54 1 0 
1 0 2.54 1 0 
1 0 2.54 1 0 
1 0 2.54 1 0 
1 6.2831853071795862 0 0 -1 
1 0 0 0 1 
1 4.7123889803846897 0 0 1 
1 4.7123889803846897 0 0 -1 
1 3.1415926535897931 0 0 -1 
1 3.1415926535897931 0 0 1 
1 1.5707963267948961 0 0 -1 
1 1.5707963267948963 0 0 1 
Curves 64
1 -1.2700000000000002 1.27 2.54 8.5370249802008213e-17 -1 0 
2 -0.77000000000000002 -0.76999999999999991 2.54 -0 0 1 -1 0 -0 -0 -1 0 0.5
1 1.27 -1.2699999999999996 2.54 1 1.7074049960401643e-16 -0 
2 0.76999999999999991 -0.76999999999999968 2.54 -0 0 1 -1 0 -0 -0 -1 0 0.5
1 1.2699999999999996 1.2700000000000005 2.54 -1.7074049960401643e-16 1 -0 
2 0.7699999999999998 0.77000000000000035 2.54 -0 0 1 -1 0 -0 -0 -1 0 0.5
1 1.2699999999999996 1.2700000000000005 2.54 -1 -1.7074049960401648e-16 0 
2 -0.77000000000000024 0.77000000000000013 2.54 -0 0 1 -1 -1.7347234759768071e-15 0 1.7347234759768071e-15 -1 0 0.5
1 0.33999999999999997 -0.33999999999999997 2.54 0 1 0 
1 -0.34000000000000008 -0.33999999999999997 2.54 1 0 0 
1 -0.34000000000000008 -0.33999999999999997 2.54 -0 -1 -0 
1 -0.34000000000000008 0.34000000000000008 2.54 -1 -0 -0 
1 1.27 -1.2699999999999996 0 1 1.7074049960401643e-16 -0 
2 -0.77000000000000002 -0.76999999999999991 0 0 -0 -1 -1 -0 0 -0 1 -0 0.5
1 -1.2700000000000002 1.27 0 8.5370249802008213e-17 -1 0 
2 -0.77000000000000024 0.77000000000000013 0 0 -0 -1 -1 -0 0 -0 1 -0 0.5
1 1.2699999999999996 1.2700000000000005 0 -1 -1.7074049960401648e-16 0 
2 0.7699999999999998 0.77000000000000035 0 0 -0 -1 -1 -0 0 -0 1 -0 0.5
1 1.2699999999999996 1.2700000000000005 0 -1.7074049960401643e-16 1 -0 
2 0.76999999999999991 -0.76999999999999968 0 0 -0 -1 -1 -0 0 -0 1 -0 0.5
1 -0.34000000000000008 -0.33999999999999997 0 1 0 0 
1 0.33999999999999997 -0.33999999999999997 0 0 1 0 
1 -0.34000000000000008 0.34000000000000008 0 -1 -0 -0 
1 -0.34000000000000008 -0.33999999999999997 0 -0 -1 -0 
1 -1.27 -0.77000000000000002 2.54 -0 -0 1 
1 -1.2700000000000002 0.77000000000000013 2.54 0 0 -1 
1 -0.77000000000000002 -1.27 2.54 0 0 -1 
1 0.77000000000000002 -1.2699999999999996 2.54 -0 -0 1 
1 1.2699999999999996 0.77000000000000046 2.54 -0 -0 1 
1 1.27 -0.76999999999999968 2.54 0 0 -1 
1 -0.77000000000000046 1.27 2.54 -0 -0 1 
1 0.76999999999999968 1.2700000000000005 2.54 0 0 -1 
1 0.33999999999999997 -0.33999999999999997 2.54 -0 -0 -1 
1 0.33999999999999997 0.34000000000000008 2.54 -0 -0 -1 
1 -0.34000000000000008 0.34000000000000008 2.54 -0 -0 -1 
1 -0.34000000000000008 -0.33999999999999997 2.54 -0 -0 -1 
1 -0.34000000000000008 0.34000000000000008 9.5016652224137044 0 0 -1 
1 -0.34000000000000008 -0.34000000000000008 -5.1861556333138799 0 -1 0 
1 -0.34000000000000008 -0.34000000000000008 9.5016652224137044 0 0 -1 
1 -0.34000000000000008 0.34000000000000008 4.7823498182389832 0 1 0 
1 0.34000000000000008 -0.34000000000000008 -5.1861556333138799 1 0 0 
1 0.34000000000000008 -0.34000000000000008 9.5016652224137044 0 0 -1 
1 -0.34000000000000008 -0.34000000000000008 4.7823498182389832 -1 0 0 
1 0.34000000000000008 0.34000000000000008 -5.1861556333138799 0 1 0 
1 0.34000000000000008 0.34000000000000008 9.5016652224137044 0 0 -1 
1 0.34000000000000008 -0.34000000000000008 4.7823498182389832 -0 -1 0 
1 -0.34000000000000008 0.34000000000000008 -5.1861556333138799 -1 0 0 
1 0.34000000000000008 0.34000000000000008 4.7823498182389832 1 0 0 
1 -0.34000000000000008 0.2200000000000002 5.54 -1 0 0 
1 -0.2200000000000002 -0.34000000000000008 5.54 0 -1 0 
1 0.34000000000000008 -0.2200000000000002 5.54 1 0 0 
1 0.2200000000000002 0.34000000000000008 5.54 0 1 0 
1 0.34000000000000008 0.2200000000000002 -6.04 1 0 0 
1 0.2200000000000002 -0.34000000000000008 -6.04 -0 -1 0 
1 -0.34000000000000008 -0.2200000000000002 -6.04 -1 0 0 
1 -0.2200000000000002 0.34000000000000008 -6.04 0 1 0 
1 0.21474482019601837 -0.21474482019601837 5.5731798994472808 -0.15455478293210526 0.15455478293210526 0.97582049483786704 
1 0.21474482019601837 0.21474482019601837 5.5731798994472808 0.15455478293210526 0.15455478293210526 -0.97582049483786704 
1 -0.21474482019601837 0.21474482019601837 5.5731798994472808 -0.15455478293210526 0.15455478293210526 -0.97582049483786704 
1 -0.21474482019601837 -0.21474482019601837 5.5731798994472808 0.15455478293210526 0.15455478293210526 0.97582049483786704 
1 -0.21581975436641848 -0.21581975436641851 -6.0697439932133168 0.13784453749162612 0.13784453749162612 -0.98081484846398981 
1 -0.21581975436641851 0.21581975436641848 -6.0697439932133168 -0.13784453749162612 0.13784453749162612 0.98081484846398981 
1 0.21581975436641848 0.21581975436641851 -6.0697439932133168 0.13784453749162612 0.13784453749162612 0.98081484846398981 
1 0.21581975436641848 -0.21581975436641851 -6.0697439932133168 -0.13784453749162612 0.13784453749162612 -0.98081484846398981 
Polygon3D 0
PolygonOnTriangulations 0
Surfaces 28
1 0 0 2.54 0 0 -1 -1 0 -0 0 1 0 
1 -1.2700000000000002 1.27 2.54 1 8.5370249802008213e-17 -0 -8.5370249802008213e-17 1 0 0 0 1 
2 -0.77000000000000002 -0.76999999999999991 2.54 0 0 -1 -1 0 0 0 1 0 0.5
1 1.27 -1.2699999999999996 2.54 -1.7074049960401643e-16 1 0 -1 -1.7074049960401643e-16 0 0 0 1 
2 0.76999999999999991 -0.76999999999999968 2.54 0 0 -1 -1 0 0 0 1 0 0.5
1 1.2699999999999996 1.2700000000000005 2.54 -1 -1.7074049960401643e-16 0 1.7074049960401643e-16 -1 0 0 0 1 
2 0.7699999999999998 0.77000000000000035 2.54 0 0 -1 -1 0 0 0 1 0 0.5
1 1.2699999999999996 1.2700000000000005 2.54 1.7074049960401648e-16 -1 0 1 1.7074049960401648e-16 0 -0 0 1 
2 -0.77000000000000024 0.77000000000000013 2.54 0 0 -1 -1 0 0 0 1 0 0.5
1 0.33999999999999997 -0.33999999999999997 2.54 -1 0 0 0 0 1 0 1 -0 
1 -0.34000000000000008 -0.33999999999999997 2.54 0 1 0 0 -0 1 1 0 -0 
1 -0.34000000000000008 -0.33999999999999997 2.54 1 0 0 0 0 -1 -0 1 0 
1 -0.34000000000000008 0.34000000000000008 2.54 0 -1 0 0 -0 -1 1 0 0 
1 0 0 0 0 0 -1 -1 0 -0 0 1 0 
1 -0.34000000000000008 -0.34000000000000008 9.5016652224137044 -1 0 0 0 0 1 0 1 -0 
1 0.34000000000000008 0.34000000000000008 9.5016652224137044 0 1 0 0 -0 1 1 0 -0 
1 -0.2200000000000002 0 -6.04 -0.9902680687415707 -0 -0.13917310096006291 0 -1 0 -0.13917310096006291 0 0.9902680687415707 
1 0.34000000000000008 -0.34000000000000008 9.5016652224137044 0 -1 -0 0 0 -1 1 0 0 
1 -0.2200000000000002 0 5.54 -0.9876883405951381 0 0.15643446504022848 0 1 0 -0.15643446504022848 0 -0.9876883405951381 
1 0 -0.2200000000000002 -6.04 0 -0.9902680687415707 -0.13917310096006291 1 0 0 0 -0.13917310096006291 0.9902680687415707 
1 0.34000000000000008 -0.34000000000000008 9.5016652224137044 1 -0 0 0 0 -1 0 1 0 
1 0 -0.2200000000000002 5.54 0 -0.9876883405951381 0.15643446504022848 -1 0 0 -0 -0.15643446504022848 -0.9876883405951381 
1 0.2200000000000002 0 -6.04 0.9902680687415707 0 -0.13917310096006291 0 1 0 0.13917310096006291 -0 0.9902680687415707 
1 0.2200000000000002 0 5.54 0.9876883405951381 0 0.15643446504022848 0 -1 0 0.15643446504022848 0 -0.9876883405951381 
1 0 0.2200000000000002 -6.04 0 0.9902680687415707 -0.13917310096006291 -1 0 0 0 0.13917310096006291 0.9902680687415707 
1 0 0.2200000000000002 5.54 -0 0.9876883405951381 0.15643446504022848 1 0 0 0 0.15643446504022848 -0.9876883405951381 
1 0 0 5.54 0 0 -1 -1 0 -0 0 1 0 
1 0 0 -6.04 0 -0 1 1 0 0 -0 1 0 
Triangulations 0

TShapes 168
Ve
1e-07
-1.27 0.77 2.54
0 0

0101101
*
Ve
1e-07
-1.27 -0.77 2.54
0 0

0101101
*
Ed
 1e-07 1 1 0
1  1 0 0.5 2.04
4 C0 1 0 2 0
0

0101000
+168 0 -167 0 *
Ve
1e-07
-0.77 -1.27 2.54
0 0

0101101
*
Ed
 1e-07 1 1 0
1  2 0 0 1.5707963267949
2  1 3 0 0 1.5707963267949
4 C0 1 0 3 0
0

0101000
+167 0 -165 0 *
Ve
1e-07
0.77 -1.27 2.54
0 0

0101101
*
Ed
 1e-07 1 1 0
1  3 0 -2.04 -0.5
4 C0 1 0 4 0
0

0101000
+165 0 -163 0 *
Ve
1e-07
1.27 -0.77 2.54
0 0

0101101
*
Ed
 1e-07 1 1 0
1  4 0 1.5707963267949 3.14159265358979
2  2 5 0 1.5707963267949 3.14159265358979
4 C0 1 0 5 0
0

0101000
+163 0 -161 0 *
Ve
1e-07
1.27 0.77 2.54
0 0

0101101
*
Ed
 1e-07 1 1 0
1  5 0 -2.04 -0.5
4 C0 1 0 6 0
0

0101000
+161 0 -159 0 *
Ve
1e-07
0.77 1.27 2.54
0 0

0101101
*
Ed
 1e-07 1 1 0
1  6 0 3.14159265358979 4.71238898038469
2  3 7 0 3.14159265358979 4.71238898038469
4 C0 1 0 7 0
0

0101000
+159 0 -157 0 *
Ve
1e-07
-0.77 1.27 2.54
0 0

0101101
*
Ed
 1e-07 1 1 0
1  7 0 0.5 2.04
4 C0 1 0 8 0
0

0101000
+157 0 -155 0 *
Ed
 1e-07 1 1 0
1  8 0 4.71238898038469 6.28318530717959
2  4 9 0 4.71238898038469 6.28318530717959
4 C0 1 0 9 0
0

0101000
+155 0 -168 0 *
Wi

0101100
+166 0 +164 0 +162 0 +160 0 +158 0 +156 0 +154 0 +153 0 *
Ve
1e-07
0.34 -0.34 2.54
0 0

0101101
*
Ve
1e-07
0.34 0.34 2.54
0 0

0101101
*
Ed
 1e-07 1 1 0
1  9 0 0 0.68
4 C0 1 0 10 0
0

0101000
+151 0 -150 0 *
Ve
1e-07
-0.34 -0.34 2.54
0 0

0101101
*
Ed
 1e-07 1 1 0
1  10 0 0 0.68
4 C0 1 0 11 0
0

0101000
+148 0 -151 0 *
Ve
1e-07
-0.34 0.34 2.54
0 0

0101101
*
Ed
 1e-07 1 1 0
1  11 0 -0.68 -0
4 C0 1 0 12 0
0

0101000
+146 0 -148 0 *
Ed
 1e-07 1 1 0
1  12 0 -0.68 -0
4 C0 1 0 13 0
0

0101000
+150 0 -146 0 *
Wi

0101100
-149 0 -147 0 -145 0 -144 0 *
Fa
0  1e-07 1 0

0111000
-152 0 -143 0 *
Ve
1e-07
-0.77 -1.27 0
0 0

0101101
*
Ve
1e-07
0.77 -1.27 0
0 0

0101101
*
Ed
 1e-07 1 1 0
1  13 0 -2.04 -0.5
4 C0 14 0 4 0
0

0101000
+141 0 -140 0 *
Ve
1e-07
-1.27 -0.77 0
0 0

0101101
*
Ed
 1e-07 1 1 0
1  14 0 4.71238898038469 6.28318530717959
2  5 3 0 4.71238898038469 6.28318530717959
4 C0 14 0 3 0
0

0101000
+141 0 -138 0 *
Ve
1e-07
-1.27 0.77 0
0 0

0101101
*
Ed
 1e-07 1 1 0
1  15 0 0.5 2.04
4 C0 14 0 2 0
0

0101000
+136 0 -138 0 *
Ve
1e-07
-0.77 1.27 0
0 0

0101101
*
Ed
 1e-07 1 1 0
1  16 0 0 1.5707963267949
2  6 9 0 0 1.5707963267949
4 C0 14 0 9 0
0

0101000
+136 0 -134 0 *
Ve
1e-07
0.77 1.27 0
0 0

0101101
*
Ed
 1e-07 1 1 0
1  17 0 0.5 2.04
4 C0 14 0 8 0
0

0101000
+132 0 -134 0 *
Ve
1e-07
1.27 0.77 0
0 0

0101101
*
Ed
 1e-07 1 1 0
1  18 0 1.5707963267949 3.14159265358979
2  7 7 0 1.5707963267949 3.14159265358979
4 C0 14 0 7 0
0

0101000
+132 0 -130 0 *
Ve
1e-07
1.27 -0.77 0
0 0

0101101
*
Ed
 1e-07 1 1 0
1  19 0 -2.04 -0.5
4 C0 14 0 6 0
0

0101000
+128 0 -130 0 *
Ed
 1e-07 1 1 0
1  20 0 3.14159265358979 4.71238898038469
2  8 5 0 3.14159265358979 4.71238898038469
4 C0 14 0 5 0
0

0101000
+128 0 -140 0 *
Wi

0101100
-139 0 +137 0 -135 0 +133 0 -131 0 +129 0 -127 0 +126 0 *
Ve
1e-07
-0.34 -0.34 0
0 0

0101101
*
Ve
1e-07
0.34 -0.34 0
0 0

0101101
*
Ed
 1e-07 1 1 0
1  21 0 0 0.68
4 C0 14 0 11 0
0

0101000
+124 0 -123 0 *
Ve
1e-07
0.34 0.34 0
0 0

0101101
*
Ed
 1e-07 1 1 0
1  22 0 0 0.68
4 C0 14 0 10 0
0

0101000
+123 0 -121 0 *
Ve
1e-07
-0.34 0.34 0
0 0

0101101
*
Ed
 1e-07 1 1 0
1  23 0 -0.68 -0
4 C0 14 0 13 0
0

0101000
+121 0 -119 0 *
Ed
 1e-07 1 1 0
1  24 0 -0.68 -0
4 C0 14 0 12 0
0

0101000
+119 0 -124 0 *
Wi

0101100
+122 0 +120 0 +118 0 +117 0 *
Fa
0  1e-07 14 0

0111000
+125 0 +116 0 *
Ed
 1e-07 1 1 0
1  25 0 -2.54 0
2  9 3 0 -2.54 0
4 G1 2 0 3 0
0

0101000
+138 0 -167 0 *
Ed
 1e-07 1 1 0
1  26 0 0 2.54
2  10 9 0 0 2.54
4 G1 2 0 9 0
0

0101000
+168 0 -136 0 *
Wi

0101100
+135 0 +114 0 -166 0 +113 0 *
Fa
0  1e-07 2 0

0111000
-112 0 *
Ed
 1e-07 1 1 0
1  27 0 0 2.54
2  11 3 0 0 2.54
4 G1 4 0 3 0
0

0101000
+165 0 -141 0 *
Ed
 1e-07 1 1 0
1  28 0 -2.54 0
2  12 5 0 -2.54 0
4 G1 4 0 5 0
0

0101000
+140 0 -163 0 *
Wi

0101100
-162 0 +110 0 +139 0 +109 0 *
Fa
0  1e-07 4 0

0111000
-108 0 *
Ed
 1e-07 1 1 0
1  29 0 -2.54 0
2  13 7 0 -2.54 0
4 G1 6 0 7 0
0

0101000
+130 0 -159 0 *
Ed
 1e-07 1 1 0
1  30 0 0 2.54
2  14 5 0 0 2.54
4 G1 6 0 5 0
0

0101000
+161 0 -128 0 *
Wi

0101100
+127 0 +106 0 -158 0 +105 0 *
Fa
0  1e-07 6 0

0111000
-104 0 *
Ed
 1e-07 1 1 0
1  31 0 -2.54 0
2  15 9 0 -2.54 0
4 G1 8 0 9 0
0

0101000
+134 0 -155 0 *
Ed
 1e-07 1 1 0
1  32 0 0 2.54
2  16 7 0 0 2.54
4 G1 8 0 7 0
0

0101000
+157 0 -132 0 *
Wi

0101100
+131 0 +102 0 -154 0 +101 0 *
Fa
0  1e-07 8 0

0111000
-100 0 *
Ed
 1e-07 1 1 0
1  33 0 -0 2.54
4 C0 10 0 11 0
0

0101000
+151 0 -123 0 *
Ed
 1e-07 1 1 0
1  34 0 -0 2.54
4 C0 10 0 13 0
0

0101000
+150 0 -121 0 *
Wi

0101100
-120 0 -98 0 +149 0 +97 0 *
Fa
0  1e-07 10 0

0111000
+96 0 *
Ed
 1e-07 1 1 0
1  35 0 -0 2.54
4 C0 13 0 12 0
0

0101000
+146 0 -119 0 *
Wi

0101100
-118 0 -97 0 +144 0 +94 0 *
Fa
0  1e-07 13 0

0111000
+93 0 *
Ed
 1e-07 1 1 0
1  36 0 -0 2.54
4 C0 12 0 11 0
0

0101000
+148 0 -124 0 *
Wi

0101100
-117 0 -94 0 +145 0 +91 0 *
Fa
0  1e-07 12 0

0111000
+90 0 *
Wi

0101100
-122 0 -91 0 +147 0 +98 0 *
Fa
0  1e-07 11 0

0111000
+88 0 *
Wi

0101100
-164 0 -114 0 -137 0 -110 0 *
Fa
0  1e-07 3 0

0111000
+86 0 *
Wi

0101100
-153 0 -102 0 -133 0 -113 0 *
Fa
0  1e-07 9 0

0111000
+84 0 *
Wi

0101100
-156 0 -106 0 -129 0 -101 0 *
Fa
0  1e-07 7 0

0111000
+82 0 *
Wi

0101100
-160 0 -109 0 -126 0 -105 0 *
Fa
0  1e-07 5 0

0111000
+80 0 *
Sh

0101100
-142 0 +115 0 -111 0 -107 0 -103 0 -99 0 +95 0 +92 0 +89 0 +87 0 
+85 0 +83 0 +81 0 +79 0 *
So

0100000
+78 0 *
Ve
1e-07
-0.34 0.34 4.78234981823898
0 0

0101101
*
Ve
1e-07
-0.34 0.34 -5.18615563331388
0 0

0101101
*
Ed
 1e-07 1 1 0
1  37 0 4.71931540417472 14.6878208557276
4 C0 15 0 16 0
0

0101000
+76 0 -75 0 *
Ve
1e-07
-0.34 -0.34 -5.18615563331388
0 0

0101101
*
Ed
 1e-07 1 1 0
1  38 0 -0.68 0
4 C0 15 0 17 0
0

0101000
+75 0 -73 0 *
Ve
1e-07
-0.34 -0.34 4.78234981823898
0 0

0101101
*
Ed
 1e-07 1 1 0
1  39 0 4.71931540417472 14.6878208557276
4 C0 15 0 18 0
0

0101000
+71 0 -73 0 *
Ed
 1e-07 1 1 0
1  40 0 -0.68 0
4 C0 15 0 19 0
0

0101000
+71 0 -76 0 *
Wi

0101100
+74 0 +72 0 -70 0 +69 0 *
Fa
0  1e-07 15 0

0111000
+68 0 *
Ve
1e-07
0.34 -0.34 -5.18615563331388
0 0

0101101
*
Ed
 1e-07 1 1 0
1  41 0 -0.68 0
4 C0 18 0 20 0
0

0101000
+73 0 -66 0 *
Ve
1e-07
0.34 -0.34 4.78234981823898
0 0

0101101
*
Ed
 1e-07 1 1 0
1  42 0 4.71931540417472 14.6878208557276
4 C0 18 0 21 0
0

0101000
+64 0 -66 0 *
Ed
 1e-07 1 1 0
1  43 0 -0.68 0
4 C0 18 0 22 0
0

0101000
+64 0 -71 0 *
Wi

0101100
+70 0 +65 0 -63 0 +62 0 *
Fa
0  1e-07 18 0

0111000
+61 0 *
Ve
1e-07
0.34 0.34 -5.18615563331388
0 0

0101101
*
Ed
 1e-07 1 1 0
1  44 0 -0.68 0
4 C0 21 0 23 0
0

0101000
+66 0 -59 0 *
Ve
1e-07
0.34 0.34 4.78234981823898
0 0

0101101
*
Ed
 1e-07 1 1 0
1  45 0 4.71931540417472 14.6878208557276
4 C0 21 0 16 0
0

0101000
+57 0 -59 0 *
Ed
 1e-07 1 1 0
1  46 0 -0.68 0
4 C0 21 0 24 0
0

0101000
+57 0 -64 0 *
Wi

0101100
+63 0 +58 0 -56 0 +55 0 *
Fa
0  1e-07 21 0

0111000
+54 0 *
Ed
 1e-07 1 1 0
1  47 0 -0.68 0
4 C0 16 0 25 0
0

0101000
+59 0 -75 0 *
Ed
 1e-07 1 1 0
1  48 0 -0.68 0
4 C0 16 0 26 0
0

0101000
+76 0 -57 0 *
Wi

0101100
+56 0 +52 0 -74 0 +51 0 *
Fa
0  1e-07 16 0

0111000
+50 0 *
Ve
1e-07
0.22 0.22 5.54
0 0

0101101
*
Ve
1e-07
-0.22 0.22 5.54
0 0

0101101
*
Ed
 1e-07 1 1 0
1  49 0 -0.56 -0.12
4 C0 27 0 26 0
0

0101000
+48 0 -47 0 *
Ve
1e-07
-0.22 -0.22 5.54
0 0

0101101
*
Ed
 1e-07 1 1 0
1  50 0 -0.56 -0.12
4 C0 27 0 19 0
0

0101000
+47 0 -45 0 *
Ve
1e-07
0.22 -0.22 5.54
0 0

0101101
*
Ed
 1e-07 1 1 0
1  51 0 -0.56 -0.12
4 C0 27 0 22 0
0

0101000
+45 0 -43 0 *
Ed
 1e-07 1 1 0
1  52 0 -0.56 -0.12
4 C0 27 0 24 0
0

0101000
+43 0 -48 0 *
Wi

0101100
+46 0 +44 0 +42 0 +41 0 *
Fa
0  1e-07 27 0

0111000
-40 0 *
Ve
1e-07
-0.22 0.22 -6.04
0 0

0101101
*
Ve
1e-07
0.22 0.22 -6.04
0 0

0101101
*
Ed
 1e-07 1 1 0
1  53 0 -0.56 -0.12
4 C0 28 0 25 0
0

0101000
+38 0 -37 0 *
Ve
1e-07
0.22 -0.22 -6.04
0 0

0101101
*
Ed
 1e-07 1 1 0
1  54 0 -0.56 -0.12
4 C0 28 0 23 0
0

0101000
+37 0 -35 0 *
Ve
1e-07
-0.22 -0.22 -6.04
0 0

0101101
*
Ed
 1e-07 1 1 0
1  55 0 -0.56 -0.12
4 C0 28 0 20 0
0

0101000
+35 0 -33 0 *
Ed
 1e-07 1 1 0
1  56 0 -0.56 -0.12
4 C0 28 0 17 0
0

0101000
+33 0 -38 0 *
Wi

0101100
+36 0 +34 0 +32 0 +31 0 *
Fa
0  1e-07 28 0

0111000
-30 0 *
Ed
 1e-07 1 1 0
1  57 0 -0.810425775428804 -0.0340020522450633
4 C0 24 0 22 0
0

0101000
+64 0 -43 0 *
Ed
 1e-07 1 1 0
1  58 0 0.0340020522450633 0.810425775428804
4 C0 24 0 26 0
0

0101000
+48 0 -57 0 *
Wi

0101100
-28 0 -55 0 -27 0 -41 0 *
Fa
0  1e-07 24 0

0111000
+26 0 *
Ed
 1e-07 1 1 0
1  59 0 0.0340020522450633 0.810425775428804
4 C0 26 0 19 0
0

0101000
+47 0 -76 0 *
Wi

0101100
+27 0 -51 0 -24 0 -46 0 *
Fa
0  1e-07 26 0

0111000
+23 0 *
Ed
 1e-07 1 1 0
1  60 0 -0.810425775428804 -0.0340020522450633
4 C0 22 0 19 0
0

0101000
+71 0 -45 0 *
Wi

0101100
+28 0 -42 0 -21 0 -62 0 *
Fa
0  1e-07 22 0

0111000
+20 0 *
Wi

0101100
+24 0 -69 0 +21 0 -44 0 *
Fa
0  1e-07 19 0

0111000
+18 0 *
Ed
 1e-07 1 1 0
1  61 0 -0.900871720369227 -0.0303257982481582
4 C0 17 0 20 0
0

0101000
+73 0 -33 0 *
Ed
 1e-07 1 1 0
1  62 0 0.0303257982481582 0.900871720369227
4 C0 17 0 25 0
0

0101000
+38 0 -75 0 *
Wi

0101100
-16 0 -72 0 -15 0 -31 0 *
Fa
0  1e-07 17 0

0111000
+14 0 *
Ed
 1e-07 1 1 0
1  63 0 0.0303257982481582 0.900871720369227
4 C0 25 0 23 0
0

0101000
+37 0 -59 0 *
Wi

0101100
+15 0 -52 0 -12 0 -36 0 *
Fa
0  1e-07 25 0

0111000
+11 0 *
Ed
 1e-07 1 1 0
1  64 0 -0.900871720369227 -0.0303257982481582
4 C0 20 0 23 0
0

0101000
+66 0 -35 0 *
Wi

0101100
+16 0 -32 0 -9 0 -65 0 *
Fa
0  1e-07 20 0

0111000
+8 0 *
Wi

0101100
+12 0 -58 0 +9 0 -34 0 *
Fa
0  1e-07 23 0

0111000
+6 0 *
Sh

0101100
+67 0 +60 0 +53 0 +49 0 -39 0 -29 0 +25 0 +22 0 +19 0 +17 0 
+13 0 +10 0 +7 0 +5 0 *
So

0100000
+4 0 *
Co

0100000
+77 4 +3 7 *
Co

1100000
+2 1 *

+1 0 