DBRep_DrawableShape

CASCADE Topology V1, (c) Matra-Datavision
Locations 1
1
              1               0               0               0 
              0               1               0               0 
              0               0               1               0 
Curve2ds 0
Curves 76
1 -0.34000000000000002 1.400000000000001 0.50000000000000044 0 1 0 
1 -0.5 7.9006313737477738 0.5 1 0 -0 
1 0.34000000000000002 1.400000000000001 0.50000000000000044 0 1 0 
1 -0.49999999999999989 1.400000000000001 0.5 1 0 0 
1 0.34000000000000002 1.400000000000001 -0.5 0 1 0 
1 -0.5 7.9006313737477738 -0.5 -1 0 0 
1 -0.34000000000000002 1.400000000000001 -0.5 0 1 0 
1 -0.49999999999999989 1.400000000000001 -0.5 -1 -0 -0 
1 0.34000000000000002 1.400000000000001 -0.5 0 0 1 
1 -0.34000000000000002 1.400000000000001 -0.5 0 0 1 
1 -0.34000000000000002 1.400000000000001 -0.34000000000000091 1 0 -0 
1 0.34000000000000002 1.400000000000001 0 -0 0 1 
1 -0.34000000000000002 1.400000000000001 0.33999999999999914 -1 0 0 
1 -0.34000000000000002 1.400000000000001 0 -0 0 1 
1 1.2699999999999998 8.4000000000000004 1.2699999999999991 0 0 -1 
1 -1.2700000000000002 8.4000000000000004 -1.2700000000000009 -1 -0 -0 
1 -1.2700000000000002 8.4000000000000004 1.2699999999999991 -0 -0 1 
1 -1.2700000000000002 8.4000000000000004 1.2699999999999991 1 0 0 
1 0.34000000000000002 8.4000000000000004 -0.3400000000000008 -0 -0 -1 
1 -0.34000000000000002 8.4000000000000004 0.3400000000000008 1 0 0 
1 -0.34000000000000002 8.4000000000000004 -0.3400000000000008 0 0 1 
1 -0.34000000000000002 8.4000000000000004 -0.3400000000000008 -1 -0 -0 
1 -0.83999999999999964 -0 0 0 0 1 
1 0 -0 0.83999999999999875 1 0 0 
1 0.83999999999999964 0 0 0 0 -1 
1 0 -0 -0.84000000000000052 -1 0 0 
1 1.2699999999999998 0 1.2699999999999991 0 0 -1 
1 -1.2700000000000002 0 1.2699999999999991 1 0 0 
1 -1.2700000000000002 0 1.2699999999999991 -0 -0 1 
1 -1.2700000000000002 0 -1.2700000000000009 -1 -0 -0 
1 1.2699999999999998 8.4000000000000004 -1.2700000000000009 -0 -1 -0 
1 1.2699999999999998 8.4000000000000004 1.2699999999999991 -0 -1 -0 
1 -1.2700000000000002 8.4000000000000004 -1.2700000000000009 -0 -1 -0 
1 -1.2700000000000002 8.4000000000000004 1.2699999999999991 -0 -1 -0 
1 0.33999999999999991 6.9006313737477738 0.34000000000000091 0 1 0 
1 0.33999999999999991 6.9006313737477738 0.34000000000000091 0 0 -1 
1 0.33999999999999991 6.9006313737477738 -0.34000000000000091 0 1 0 
1 0.34000000000000002 7.9006313737477738 -0.5 0 0 1 
1 0.34000000000000002 8.4000000000000004 -0.34000000000000091 -0 -1 -0 
1 0.34000000000000002 0.50000000000000222 0.33999999999999914 0 0 1 
1 0.34000000000000002 8.4000000000000004 0.33999999999999914 -0 -1 -0 
1 0.34000000000000002 7.9006313737477738 -0.5 0 0 1 
1 -0.34000000000000002 8.4000000000000004 -0.34000000000000091 -0 -1 -0 
1 -0.34000000000000002 0.50000000000000222 -0.34000000000000091 1 0 0 
1 -0.33999999999999991 6.9006313737477738 0.34000000000000091 0 1 0 
1 -0.34000000000000002 7.9006313737477738 -0.5 0 0 1 
1 -0.34000000000000002 8.4000000000000004 0.33999999999999914 -0 -1 -0 
1 -0.34000000000000002 0.50000000000000222 0.33999999999999914 0 0 -1 
1 -0.34000000000000002 7.9006313737477738 -0.5 0 0 1 
1 -0.33999999999999991 6.9006313737477738 -0.34000000000000091 0 1 0 
1 -0.33999999999999991 6.9006313737477738 0.34000000000000091 -0 -0 1 
1 -0.34000000000000002 0.50000000000000222 0.33999999999999914 -1 0 0 
1 0.56000000000000039 0.28000000000000069 -0.56000000000000139 0.57735026918962473 -0.57735026918962773 -0.57735026918962473 
1 -0.56000000000000039 0.28000000000000069 -0.56000000000000139 0.57735026918962473 0.57735026918962773 0.57735026918962473 
1 -0.56000000000000072 0.28000000000000036 0.55999999999999983 0.57735026918962473 0.57735026918962773 -0.57735026918962473 
1 0.56000000000000072 0.28000000000000036 0.55999999999999983 0.57735026918962473 -0.57735026918962773 0.57735026918962473 
1 -0.34000000000000002 7.9006313737477738 0.3400000000000008 1 0 -0 
1 -0.33999999999999991 6.9006313737477738 0.34000000000000091 1 0 0 
1 -0.34000000000000002 7.9006313737477738 -0.3400000000000008 -1 0 0 
1 -0.33999999999999991 6.9006313737477738 -0.34000000000000091 -1 -0 -0 
1 0.13999999999999765 10.900631373747773 -0.34000000000000091 0 0 -1 
1 -0.33999999999999991 10.900631373747773 -0.13999999999999863 -1 0 0 
1 -0.13999999999999765 10.900631373747773 0.34000000000000091 0 0 1 
1 0.33999999999999991 10.900631373747773 0.13999999999999863 1 0 -0 
1 0.33999999999999991 6.9006313737477738 0.34000000000000091 0 1 0 
1 -0.33999999999999991 10.700631373747772 0.34000000000000091 -1 0 0 
1 -0.33999999999999991 6.9006313737477738 0.34000000000000091 0 1 0 
1 -0.33999999999999991 6.9006313737477738 -0.34000000000000091 0 1 0 
1 0.33999999999999991 10.700631373747772 -0.34000000000000091 1 0 0 
1 0.33999999999999991 6.9006313737477738 -0.34000000000000091 0 1 0 
1 0.33999999999999991 10.700631373747772 0.34000000000000091 0 0 1 
1 -0.33999999999999991 10.700631373747772 -0.34000000000000091 0 0 -1 
1 -0.093333333333331783 10.947298040414438 0.093333333333332741 0.57735026918962573 0.57735026918962573 -0.57735026918962573 
1 0.093333333333331783 10.947298040414438 0.093333333333332741 0.57735026918962573 -0.57735026918962573 0.57735026918962573 
1 0.09333333333333145 10.94729804041444 -0.093333333333332436 0.57735026918962573 -0.57735026918962573 -0.57735026918962573 
1 -0.09333333333333145 10.94729804041444 -0.093333333333332436 0.57735026918962573 0.57735026918962573 0.57735026918962573 
Polygon3D 0
PolygonOnTriangulations 0
Surfaces 32
1 -0.49999999999999989 1.400000000000001 0.5 -0 0 1 1 0 0 0 1 -0 
1 -0.34000000000000002 8.4000000000000004 0.33999999999999914 1 -0 0 0 0 -1 0 1 0 
1 0.34000000000000002 7.9006313737477738 -0.5 0 -1 0 0 -0 -1 1 0 0 
1 0.34000000000000002 8.4000000000000004 0.33999999999999914 -1 0 0 0 0 1 0 1 -0 
1 0 1.400000000000001 0 0 -1 0 0 -0 -1 1 0 0 
1 -0.49999999999999989 1.400000000000001 -0.5 0 0 -1 -1 0 -0 0 1 0 
1 0.34000000000000002 7.9006313737477738 -0.5 0 -1 0 0 -0 -1 1 0 0 
1 0 1.400000000000001 0 0 -1 0 0 -0 -1 1 0 0 
1 -0.34000000000000002 8.4000000000000004 -0.34000000000000091 0 0 1 1 0 -0 -0 1 0 
1 -0.34000000000000002 8.4000000000000004 0.33999999999999914 0 0 -1 -1 0 -0 0 1 0 
1 0 8.4000000000000004 0 0 -1 0 0 -0 -1 1 0 0 
1 1.2699999999999998 8.4000000000000004 1.2699999999999991 -1 0 0 0 0 1 0 1 -0 
1 -1.2700000000000002 8.4000000000000004 -1.2700000000000009 0 0 1 1 0 -0 -0 1 0 
1 -1.2700000000000002 8.4000000000000004 1.2699999999999991 1 -0 0 0 0 -1 0 1 0 
1 -1.2700000000000002 8.4000000000000004 1.2699999999999991 0 0 -1 -1 0 -0 0 1 0 
1 0.33999999999999991 6.9006313737477738 0.34000000000000091 1 -0 0 0 0 -1 0 1 0 
1 -0.33999999999999991 6.9006313737477738 0.34000000000000091 0 0 1 1 0 -0 -0 1 0 
1 -0.33999999999999991 6.9006313737477738 0.34000000000000091 -1 0 0 0 0 1 0 1 -0 
1 -0.33999999999999991 6.9006313737477738 -0.34000000000000091 0 0 -1 -1 0 -0 0 1 0 
1 0 0 0 0 -1 0 0 -0 -1 1 0 0 
1 -0.83999999999999964 0 0 -0.70710678118654935 0.70710678118654569 0 0 0 1 0.70710678118654569 0.70710678118654935 -0 
1 0 0 0.83999999999999875 -0 0.70710678118654569 0.70710678118654935 1 0 0 0 0.70710678118654935 -0.70710678118654569 
1 0.83999999999999964 0 0 0.70710678118654935 0.70710678118654569 0 0 0 -1 -0.70710678118654569 0.70710678118654935 0 
1 0 0 -0.84000000000000052 0 0.70710678118654569 -0.70710678118654935 -1 0 0 0 0.70710678118654935 0.70710678118654569 
1 -0.33999999999999991 6.9006313737477738 0.34000000000000091 0 0 1 1 0 -0 -0 1 0 
1 0 6.9006313737477738 0 0 -1 0 0 -0 -1 1 0 0 
1 -0.33999999999999991 6.9006313737477738 -0.34000000000000091 0 0 -1 -1 0 -0 0 1 0 
1 0 10.900631373747773 0 0 -1 0 0 -0 -1 1 0 0 
1 0.13999999999999765 10.900631373747773 0 0.70710678118654757 0.70710678118654757 -0 0 0 1 0.70710678118654757 -0.70710678118654757 0 
1 0 10.900631373747773 -0.13999999999999863 0 0.70710678118654757 -0.70710678118654757 1 0 0 0 -0.70710678118654757 -0.70710678118654757 
1 -0.13999999999999765 10.900631373747773 0 -0.70710678118654757 0.70710678118654757 0 0 0 -1 -0.70710678118654757 -0.70710678118654757 -0 
1 0 10.900631373747773 0.13999999999999863 0 0.70710678118654757 0.70710678118654757 -1 0 0 0 -0.70710678118654757 0.70710678118654757 
Triangulations 0

TShapes 193
Ve
1e-07
-0.34 1.4 0.5
0 0

0101101
*
Ve
1e-07
-0.34 7.90063137374777 0.5
0 0

0101101
*
Ed
 1e-07 1 1 0
1  1 0 0 6.50063137374777
4 C0 1 0 2 0
0

0101000
+193 0 -192 0 *
Ve
1e-07
0.34 7.90063137374777 0.5
0 0

0101101
*
Ed
 1e-07 1 1 0
1  2 0 0.16 0.84
4 C0 1 0 3 0
0

0101000
+192 0 -190 0 *
Ve
1e-07
0.34 1.4 0.5
0 0

0101101
*
Ed
 1e-07 1 1 0
1  3 0 0 6.50063137374777
4 C0 1 0 4 0
0

0101000
+188 0 -190 0 *
Ed
 1e-07 1 1 0
1  4 0 0.16 0.84
4 C0 1 0 5 0
0

0101000
+193 0 -188 0 *
Wi

0101100
+191 0 +189 0 -187 0 -186 0 *
Fa
0  1e-07 1 0

0111000
-185 0 *
Ve
1e-07
0.34 1.4 -0.5
0 0

0101101
*
Ve
1e-07
0.34 7.90063137374777 -0.5
0 0

0101101
*
Ed
 1e-07 1 1 0
1  5 0 0 6.50063137374777
4 C0 6 0 4 0
0

0101000
+183 0 -182 0 *
Ve
1e-07
-0.34 7.90063137374777 -0.5
0 0

0101101
*
Ed
 1e-07 1 1 0
1  6 0 -0.84 -0.16
4 C0 6 0 7 0
0

0101000
+182 0 -180 0 *
Ve
1e-07
-0.34 1.4 -0.5
0 0

0101101
*
Ed
 1e-07 1 1 0
1  7 0 0 6.50063137374777
4 C0 6 0 2 0
0

0101000
+178 0 -180 0 *
Ed
 1e-07 1 1 0
1  8 0 -0.84 -0.16
4 C0 6 0 8 0
0

0101000
+183 0 -178 0 *
Wi

0101100
+181 0 +179 0 -177 0 -176 0 *
Fa
0  1e-07 6 0

0111000
-175 0 *
Ve
1e-07
0.34 1.4 -0.340000000000001
0 0

0101101
*
Ed
 1e-07 1 1 0
1  9 0 0 0.159999999999999
4 C0 8 0 4 0
0

0101000
+183 0 -173 0 *
Ve
1e-07
-0.34 1.4 -0.340000000000001
0 0

0101101
*
Ed
 1e-07 1 1 0
1  10 0 0 0.159999999999999
4 C0 8 0 2 0
0

0101000
+178 0 -171 0 *
Ed
 1e-07 1 1 0
1  11 0 0 0.68
4 C0 8 0 9 0
0

0101000
+171 0 -173 0 *
Wi

0101100
-172 0 +176 0 +170 0 +169 0 *
Fa
0  1e-07 8 0

0111000
-168 0 *
Ve
1e-07
0.34 1.4 0.339999999999999
0 0

0101101
*
Ed
 1e-07 1 1 0
1  12 0 0.339999999999999 0.5
4 C0 5 0 4 0
0

0101000
+166 0 -188 0 *
Ve
1e-07
-0.34 1.4 0.339999999999999
0 0

0101101
*
Ed
 1e-07 1 1 0
1  13 0 -0.68 0
4 C0 5 0 10 0
0

0101000
+166 0 -164 0 *
Ed
 1e-07 1 1 0
1  14 0 0.339999999999999 0.5
4 C0 5 0 2 0
0

0101000
+164 0 -193 0 *
Wi

0101100
-165 0 +163 0 +162 0 +186 0 *
Fa
0  1e-07 5 0

0111000
-161 0 *
Ve
1e-07
1.27 8.4 1.27
0 0

0101101
*
Ve
1e-07
1.27 8.4 -1.27
0 0

0101101
*
Ed
 1e-07 1 1 0
1  15 0 0 2.54
4 C0 11 0 12 0
0

0101000
+159 0 -158 0 *
Ve
1e-07
-1.27 8.4 -1.27
0 0

0101101
*
Ed
 1e-07 1 1 0
1  16 0 -2.54 -0
4 C0 11 0 13 0
0

0101000
+158 0 -156 0 *
Ve
1e-07
-1.27 8.4 1.27
0 0

0101101
*
Ed
 1e-07 1 1 0
1  17 0 -2.54 0
4 C0 11 0 14 0
0

0101000
+156 0 -154 0 *
Ed
 1e-07 1 1 0
1  18 0 0 2.54
4 C0 11 0 15 0
0

0101000
+154 0 -159 0 *
Wi

0101100
+157 0 +155 0 +153 0 +152 0 *
Ve
1e-07
0.34 8.4 0.340000000000001
0 0

0101101
*
Ve
1e-07
0.34 8.4 -0.340000000000001
0 0

0101101
*
Ed
 1e-07 1 1 0
1  19 0 -0.680000000000002 -0
4 C0 11 0 16 0
0

0101000
+150 0 -149 0 *
Ve
1e-07
-0.34 8.4 0.340000000000001
0 0

0101101
*
Ed
 1e-07 1 1 0
1  20 0 1.11022302462516e-16 0.68
4 C0 11 0 17 0
0

0101000
+147 0 -150 0 *
Ve
1e-07
-0.34 8.4 -0.340000000000001
0 0

0101101
*
Ed
 1e-07 1 1 0
1  21 0 -1.11022302462516e-16 0.680000000000002
4 C0 11 0 18 0
0

0101000
+145 0 -147 0 *
Ed
 1e-07 1 1 0
1  22 0 -0.68 -1.11022302462516e-16
4 C0 11 0 19 0
0

0101000
+149 0 -145 0 *
Wi

0101100
-148 0 -146 0 -144 0 -143 0 *
Fa
0  1e-07 11 0

0111000
-151 0 -142 0 *
Ve
1e-07
-0.84 0 -0.840000000000001
0 0

0101101
*
Ve
1e-07
-0.84 0 0.839999999999999
0 0

0101101
*
Ed
 1e-07 1 1 0
1  23 0 -0.840000000000001 0.839999999999999
4 C0 20 0 21 0
0

0101000
+140 0 -139 0 *
Ve
1e-07
0.84 0 0.839999999999999
0 0

0101101
*
Ed
 1e-07 1 1 0
1  24 0 -0.84 0.84
4 C0 20 0 22 0
0

0101000
+139 0 -137 0 *
Ve
1e-07
0.84 0 -0.840000000000001
0 0

0101101
*
Ed
 1e-07 1 1 0
1  25 0 -0.839999999999999 0.840000000000001
4 C0 20 0 23 0
0

0101000
+137 0 -135 0 *
Ed
 1e-07 1 1 0
1  26 0 -0.84 0.84
4 C0 20 0 24 0
0

0101000
+135 0 -140 0 *
Wi

0101100
+138 0 +136 0 +134 0 +133 0 *
Ve
1e-07
1.27 0 1.27
0 0

0101101
*
Ve
1e-07
1.27 0 -1.27
0 0

0101101
*
Ed
 1e-07 1 1 0
1  27 0 0 2.54
4 C0 20 0 12 0
0

0101000
+131 0 -130 0 *
Ve
1e-07
-1.27 0 1.27
0 0

0101101
*
Ed
 1e-07 1 1 0
1  28 0 0 2.54
4 C0 20 0 15 0
0

0101000
+128 0 -131 0 *
Ve
1e-07
-1.27 0 -1.27
0 0

0101101
*
Ed
 1e-07 1 1 0
1  29 0 -2.54 0
4 C0 20 0 14 0
0

0101000
+126 0 -128 0 *
Ed
 1e-07 1 1 0
1  30 0 -2.54 -0
4 C0 20 0 13 0
0

0101000
+130 0 -126 0 *
Wi

0101100
-129 0 -127 0 -125 0 -124 0 *
Fa
0  1e-07 20 0

0111000
+132 0 +123 0 *
Ed
 1e-07 1 1 0
1  31 0 -0 8.4
4 C0 12 0 13 0
0

0101000
+158 0 -130 0 *
Ed
 1e-07 1 1 0
1  32 0 -0 8.4
4 C0 12 0 15 0
0

0101000
+159 0 -131 0 *
Wi

0101100
+129 0 -121 0 -157 0 +120 0 *
Fa
0  1e-07 12 0

0111000
-119 0 *
Ed
 1e-07 1 1 0
1  33 0 -0 8.4
4 C0 13 0 14 0
0

0101000
+156 0 -126 0 *
Wi

0101100
+124 0 -117 0 -155 0 +121 0 *
Fa
0  1e-07 13 0

0111000
-116 0 *
Ed
 1e-07 1 1 0
1  34 0 -0 8.4
4 C0 14 0 15 0
0

0101000
+154 0 -128 0 *
Wi

0101100
+125 0 -114 0 -153 0 +117 0 *
Fa
0  1e-07 14 0

0111000
-113 0 *
Wi

0101100
+127 0 -120 0 -152 0 +114 0 *
Fa
0  1e-07 15 0

0111000
-111 0 *
Ve
1e-07
0.34 6.90063137374777 0.340000000000001
0 0

0101101
*
Ve
1e-07
0.34 7.90063137374777 0.340000000000001
0 0

0101101
*
Ed
 1e-07 1 1 0
1  35 0 0 1
4 C0 4 0 25 0
0

0101000
+109 0 -108 0 *
Ve
1e-07
0.34 6.90063137374777 -0.340000000000001
0 0

0101101
*
Ed
 1e-07 1 1 0
1  36 0 0 0.680000000000002
4 C0 4 0 26 0
0

0101000
+109 0 -106 0 *
Ve
1e-07
0.34 7.90063137374777 -0.340000000000001
0 0

0101101
*
Ed
 1e-07 1 1 0
1  37 0 0 1
4 C0 4 0 27 0
0

0101000
+106 0 -104 0 *
Ed
 1e-07 1 1 0
1  38 0 0 0.159999999999999
4 C0 4 0 7 0
0

0101000
+182 0 -104 0 *
Ve
1e-07
0.34 0.500000000000002 -0.340000000000001
0 0

0101101
*
Ed
 1e-07 1 1 0
1  39 0 7 7.9
4 C0 4 0 9 0
0

0101000
+173 0 -101 0 *
Ve
1e-07
0.34 0.500000000000002 0.339999999999999
0 0

0101101
*
Ed
 1e-07 1 1 0
1  40 0 -0.68 0
4 C0 4 0 23 0
0

0101000
+101 0 -99 0 *
Ed
 1e-07 1 1 0
1  41 0 7 7.9
4 C0 4 0 10 0
0

0101000
+166 0 -99 0 *
Ed
 1e-07 1 1 0
1  42 0 0.840000000000001 1
4 C0 4 0 3 0
0

0101000
+108 0 -190 0 *
Wi

0101100
-107 0 +105 0 +103 0 -102 0 -181 0 +172 0 +100 0 +98 0 -97 0 +165 0 
+187 0 -96 0 *
Fa
0  1e-07 4 0

0111000
+95 0 *
Ve
1e-07
-0.34 0.500000000000002 -0.340000000000001
0 0

0101101
*
Ed
 1e-07 1 1 0
1  43 0 7 7.9
4 C0 9 0 2 0
0

0101000
+171 0 -93 0 *
Ed
 1e-07 1 1 0
1  44 0 0 0.68
4 C0 9 0 24 0
0

0101000
+93 0 -101 0 *
Wi

0101100
+92 0 +91 0 -100 0 -169 0 *
Fa
0  1e-07 9 0

0111000
+90 0 *
Ve
1e-07
-0.34 6.90063137374777 0.340000000000001
0 0

0101101
*
Ve
1e-07
-0.34 7.90063137374777 0.340000000000001
0 0

0101101
*
Ed
 1e-07 1 1 0
1  45 0 0 1
4 C0 2 0 25 0
0

0101000
+88 0 -87 0 *
Ed
 1e-07 1 1 0
1  46 0 0.840000000000001 1
4 C0 2 0 3 0
0

0101000
+87 0 -192 0 *
Ve
1e-07
-0.34 0.500000000000002 0.339999999999999
0 0

0101101
*
Ed
 1e-07 1 1 0
1  47 0 7 7.9
4 C0 2 0 10 0
0

0101000
+164 0 -84 0 *
Ed
 1e-07 1 1 0
1  48 0 0 0.68
4 C0 2 0 21 0
0

0101000
+84 0 -93 0 *
Ve
1e-07
-0.34 7.90063137374777 -0.340000000000001
0 0

0101101
*
Ed
 1e-07 1 1 0
1  49 0 0 0.159999999999999
4 C0 2 0 7 0
0

0101000
+180 0 -81 0 *
Ve
1e-07
-0.34 6.90063137374777 -0.340000000000001
0 0

0101101
*
Ed
 1e-07 1 1 0
1  50 0 0 1
4 C0 2 0 27 0
0

0101000
+79 0 -81 0 *
Ed
 1e-07 1 1 0
1  51 0 -0.680000000000002 0
4 C0 2 0 26 0
0

0101000
+79 0 -88 0 *
Wi

0101100
+86 0 +85 0 -191 0 -162 0 +83 0 +82 0 -92 0 -170 0 +177 0 +80 0 
-78 0 +77 0 *
Fa
0  1e-07 2 0

0111000
+76 0 *
Ed
 1e-07 1 1 0
1  52 0 -0.68 0
4 C0 10 0 22 0
0

0101000
+99 0 -84 0 *
Wi

0101100
+97 0 +74 0 -83 0 -163 0 *
Fa
0  1e-07 10 0

0111000
+73 0 *
Ed
 1e-07 1 1 0
1  53 0 -0.381051177665154 0.484974226119285
4 C0 24 0 23 0
0

0101000
+101 0 -135 0 *
Ed
 1e-07 1 1 0
1  54 0 -0.484974226119285 0.381051177665154
4 C0 24 0 21 0
0

0101000
+140 0 -93 0 *
Wi

0101100
-71 0 -91 0 -70 0 -133 0 *
Fa
0  1e-07 24 0

0111000
-69 0 *
Ed
 1e-07 1 1 0
1  55 0 -0.484974226119285 0.381051177665155
4 C0 21 0 22 0
0

0101000
+139 0 -84 0 *
Wi

0101100
+70 0 -82 0 -67 0 -138 0 *
Fa
0  1e-07 21 0

0111000
-66 0 *
Ed
 1e-07 1 1 0
1  56 0 -0.381051177665155 0.484974226119285
4 C0 23 0 22 0
0

0101000
+99 0 -137 0 *
Wi

0101100
+71 0 -134 0 -64 0 -98 0 *
Fa
0  1e-07 23 0

0111000
-63 0 *
Wi

0101100
+67 0 -74 0 +64 0 -136 0 *
Fa
0  1e-07 22 0

0111000
-61 0 *
Ed
 1e-07 1 1 0
1  57 0 1.11022302462516e-16 0.68
4 C0 25 0 3 0
0

0101000
+87 0 -108 0 *
Ed
 1e-07 1 1 0
1  58 0 -1.11022302462516e-16 0.68
4 C0 25 0 26 0
0

0101000
+88 0 -109 0 *
Wi

0101100
-59 0 -86 0 +58 0 +107 0 *
Fa
0  1e-07 25 0

0111000
+57 0 *
Ed
 1e-07 1 1 0
1  59 0 -0.68 0
4 C0 27 0 7 0
0

0101000
+104 0 -81 0 *
Ed
 1e-07 1 1 0
1  60 0 -0.68 1.11022302462516e-16
4 C0 27 0 26 0
0

0101000
+106 0 -79 0 *
Wi

0101100
-55 0 -103 0 +54 0 +78 0 *
Fa
0  1e-07 27 0

0111000
+53 0 *
Wi

0101100
-105 0 -58 0 -77 0 -54 0 *
Fa
0  1e-07 26 0

0111000
+51 0 *
Wi

0101100
-179 0 +102 0 +55 0 -80 0 *
Fa
0  1e-07 7 0

0111000
+49 0 *
Ve
1e-07
0.139999999999998 10.9006313737478 0.139999999999999
0 0

0101101
*
Ve
1e-07
0.139999999999998 10.9006313737478 -0.139999999999999
0 0

0101101
*
Ed
 1e-07 1 1 0
1  61 0 -0.48 -0.200000000000002
4 C0 28 0 29 0
0

0101000
+47 0 -46 0 *
Ve
1e-07
-0.139999999999998 10.9006313737478 -0.139999999999999
0 0

0101101
*
Ed
 1e-07 1 1 0
1  62 0 -0.479999999999998 -0.200000000000002
4 C0 28 0 30 0
0

0101000
+46 0 -44 0 *
Ve
1e-07
-0.139999999999998 10.9006313737478 0.139999999999999
0 0

0101101
*
Ed
 1e-07 1 1 0
1  63 0 -0.48 -0.200000000000002
4 C0 28 0 31 0
0

0101000
+44 0 -42 0 *
Ed
 1e-07 1 1 0
1  64 0 -0.479999999999998 -0.200000000000002
4 C0 28 0 32 0
0

0101000
+42 0 -47 0 *
Wi

0101100
+45 0 +43 0 +41 0 +40 0 *
Fa
0  1e-07 28 0

0111000
-39 0 *
Ve
1e-07
0.34 10.7006313737478 0.340000000000001
0 0

0101101
*
Ed
 1e-07 1 1 0
1  65 0 1.49936862625223 3.8
4 C0 17 0 16 0
0

0101000
+150 0 -37 0 *
Ve
1e-07
-0.34 10.7006313737478 0.340000000000001
0 0

0101101
*
Ed
 1e-07 1 1 0
1  66 0 -0.68 0
4 C0 17 0 32 0
0

0101000
+37 0 -35 0 *
Ed
 1e-07 1 1 0
1  67 0 1.49936862625223 3.8
4 C0 17 0 18 0
0

0101000
+147 0 -35 0 *
Wi

0101100
+36 0 +34 0 -33 0 +146 0 *
Fa
0  1e-07 17 0

0111000
+32 0 *
Ve
1e-07
-0.34 10.7006313737478 -0.340000000000001
0 0

0101101
*
Ed
 1e-07 1 1 0
1  68 0 1.49936862625223 3.8
4 C0 19 0 18 0
0

0101000
+145 0 -30 0 *
Ve
1e-07
0.34 10.7006313737478 -0.340000000000001
0 0

0101101
*
Ed
 1e-07 1 1 0
1  69 0 -0.68 0
4 C0 19 0 30 0
0

0101000
+30 0 -28 0 *
Ed
 1e-07 1 1 0
1  70 0 1.49936862625223 3.8
4 C0 19 0 16 0
0

0101000
+149 0 -28 0 *
Wi

0101100
+29 0 +27 0 -26 0 +143 0 *
Fa
0  1e-07 19 0

0111000
+25 0 *
Ed
 1e-07 1 1 0
1  71 0 -0.680000000000002 0
4 C0 16 0 29 0
0

0101000
+28 0 -37 0 *
Wi

0101100
+26 0 +23 0 -36 0 +148 0 *
Fa
0  1e-07 16 0

0111000
+22 0 *
Ed
 1e-07 1 1 0
1  72 0 -0.680000000000002 0
4 C0 18 0 31 0
0

0101000
+35 0 -30 0 *
Wi

0101100
+33 0 +20 0 -29 0 +144 0 *
Fa
0  1e-07 18 0

0111000
+19 0 *
Wi

0101100
+59 0 +96 0 -189 0 -85 0 *
Fa
0  1e-07 3 0

0111000
+17 0 *
Ed
 1e-07 1 1 0
1  73 0 -0.427239199200324 -0.0808290376865458
4 C0 32 0 31 0
0

0101000
+35 0 -42 0 *
Ed
 1e-07 1 1 0
1  74 0 0.0808290376865458 0.427239199200324
4 C0 32 0 29 0
0

0101000
+47 0 -37 0 *
Wi

0101100
-15 0 -34 0 -14 0 -40 0 *
Fa
0  1e-07 32 0

0111000
+13 0 *
Ed
 1e-07 1 1 0
1  75 0 0.0808290376865472 0.427239199200326
4 C0 29 0 30 0
0

0101000
+46 0 -28 0 *
Wi

0101100
+14 0 -23 0 -11 0 -45 0 *
Fa
0  1e-07 29 0

0111000
+10 0 *
Ed
 1e-07 1 1 0
1  76 0 -0.427239199200326 -0.0808290376865472
4 C0 31 0 30 0
0

0101000
+30 0 -44 0 *
Wi

0101100
+15 0 -41 0 -8 0 -20 0 *
Fa
0  1e-07 31 0

0111000
+7 0 *
Wi

0101100
+11 0 -27 0 +8 0 -43 0 *
Fa
0  1e-07 30 0

0111000
+5 0 *
Sh

0101100
-184 0 -174 0 -167 0 -160 0 -141 0 +122 0 -118 0 -115 0 -112 0 -110 0 
+94 0 +89 0 +75 0 +72 0 -68 0 -65 0 -62 0 -60 0 +56 0 +52 0 
+50 0 +48 0 -38 0 +31 0 +24 0 +21 0 +18 0 +16 0 +12 0 +9 0 
+6 0 +4 0 *
So

0100000
+3 0 *
Co

1100000
+2 1 *

+1 0 